<?xml version="1.0" encoding="utf-8" standalone="no"?>
<!DOCTYPE svg PUBLIC "-//W3C//DTD SVG 1.1//EN"
  "http://www.w3.org/Graphics/SVG/1.1/DTD/svg11.dtd">
<svg xmlns:xlink="http://www.w3.org/1999/xlink" width="667.395312pt" height="574.848pt" viewBox="0 0 667.395312 574.848" xmlns="http://www.w3.org/2000/svg" version="1.1">
 <metadata>
  <rdf:RDF xmlns:dc="http://purl.org/dc/elements/1.1/" xmlns:cc="http://creativecommons.org/ns#" xmlns:rdf="http://www.w3.org/1999/02/22-rdf-syntax-ns#">
   <cc:Work>
    <dc:type rdf:resource="http://purl.org/dc/dcmitype/StillImage"/>
    <dc:date>2026-06-30T12:12:25.514584</dc:date>
    <dc:format>image/svg+xml</dc:format>
    <dc:creator>
     <cc:Agent>
      <dc:title>Matplotlib v3.11.0, https://matplotlib.org/</dc:title>
     </cc:Agent>
    </dc:creator>
   </cc:Work>
  </rdf:RDF>
 </metadata>
 <defs>
  <style type="text/css">*{stroke-linejoin: round; stroke-linecap: butt}</style>
 </defs>
 <g id="figure_1">
  <g id="patch_1">
   <path d="M 0 574.848 
L 667.395312 574.848 
L 667.395312 0 
L 0 0 
z
" style="fill: #f7f4ee"/>
  </g>
  <g id="axes_1">
   <g id="patch_2">
    <path d="M 90 511.2 
L 648 511.2 
L 648 67.68 
L 90 67.68 
z
" style="fill: #f7f4ee"/>
   </g>
   <g id="patch_3">
    <path d="M 332.766234 491.04 
L 477.701299 491.04 
L 477.701299 482.158943 
L 332.766234 482.158943 
z
" clip-path="url(#p2f6d0afcaf)" style="fill: #c9a227"/>
   </g>
   <g id="patch_4">
    <path d="M 332.766234 461.436476 
L 477.701299 461.436476 
L 477.701299 452.555419 
L 332.766234 452.555419 
z
" clip-path="url(#p2f6d0afcaf)" style="fill: #c9a227"/>
   </g>
   <g id="patch_5">
    <path d="M 332.766234 431.832952 
L 477.701299 431.832952 
L 477.701299 422.951894 
L 332.766234 422.951894 
z
" clip-path="url(#p2f6d0afcaf)" style="fill: #c9a227"/>
   </g>
   <g id="patch_6">
    <path d="M 332.766234 402.229427 
L 477.701299 402.229427 
L 477.701299 393.34837 
L 332.766234 393.34837 
z
" clip-path="url(#p2f6d0afcaf)" style="fill: #c9a227"/>
   </g>
   <g id="patch_7">
    <path d="M 332.766234 372.625903 
L 477.701299 372.625903 
L 477.701299 363.744846 
L 332.766234 363.744846 
z
" clip-path="url(#p2f6d0afcaf)" style="fill: #c9a227"/>
   </g>
   <g id="patch_8">
    <path d="M 332.766234 343.022379 
L 477.701299 343.022379 
L 477.701299 334.141322 
L 332.766234 334.141322 
z
" clip-path="url(#p2f6d0afcaf)" style="fill: #c9a227"/>
   </g>
   <g id="patch_9">
    <path d="M 332.766234 313.418855 
L 477.701299 313.418855 
L 477.701299 304.537797 
L 332.766234 304.537797 
z
" clip-path="url(#p2f6d0afcaf)" style="fill: #c9a227"/>
   </g>
   <g id="patch_10">
    <path d="M 332.766234 283.81533 
L 477.701299 283.81533 
L 477.701299 274.934273 
L 332.766234 274.934273 
z
" clip-path="url(#p2f6d0afcaf)" style="fill: #c9a227"/>
   </g>
   <g id="patch_11">
    <path d="M 332.766234 254.211806 
L 550.168831 254.211806 
L 550.168831 245.330749 
L 332.766234 245.330749 
z
" clip-path="url(#p2f6d0afcaf)" style="fill: #c9a227"/>
   </g>
   <g id="patch_12">
    <path d="M 332.766234 224.608282 
L 550.168831 224.608282 
L 550.168831 215.727225 
L 332.766234 215.727225 
z
" clip-path="url(#p2f6d0afcaf)" style="fill: #c9a227"/>
   </g>
   <g id="patch_13">
    <path d="M 332.766234 195.004758 
L 550.168831 195.004758 
L 550.168831 186.1237 
L 332.766234 186.1237 
z
" clip-path="url(#p2f6d0afcaf)" style="fill: #c9a227"/>
   </g>
   <g id="patch_14">
    <path d="M 332.766234 165.401233 
L 550.168831 165.401233 
L 550.168831 156.520176 
L 332.766234 156.520176 
z
" clip-path="url(#p2f6d0afcaf)" style="fill: #c9a227"/>
   </g>
   <g id="patch_15">
    <path d="M 332.766234 135.797709 
L 622.636364 135.797709 
L 622.636364 126.916652 
L 332.766234 126.916652 
z
" clip-path="url(#p2f6d0afcaf)" style="fill: #c9a227"/>
   </g>
   <g id="patch_16">
    <path d="M 332.766234 106.194185 
L 622.636364 106.194185 
L 622.636364 97.313128 
L 332.766234 97.313128 
z
" clip-path="url(#p2f6d0afcaf)" style="fill: #c9a227"/>
   </g>
   <g id="patch_17">
    <path d="M 332.766234 481.566872 
L 332.766234 481.566872 
L 332.766234 472.685815 
L 332.766234 472.685815 
z
" clip-path="url(#p2f6d0afcaf)" style="fill: #b94a48"/>
   </g>
   <g id="patch_18">
    <path d="M 332.766234 451.963348 
L 332.766234 451.963348 
L 332.766234 443.082291 
L 332.766234 443.082291 
z
" clip-path="url(#p2f6d0afcaf)" style="fill: #b94a48"/>
   </g>
   <g id="patch_19">
    <path d="M 332.766234 422.359824 
L 115.363636 422.359824 
L 115.363636 413.478767 
L 332.766234 413.478767 
z
" clip-path="url(#p2f6d0afcaf)" style="fill: #b94a48"/>
   </g>
   <g id="patch_20">
    <path d="M 332.766234 392.7563 
L 187.831169 392.7563 
L 187.831169 383.875242 
L 332.766234 383.875242 
z
" clip-path="url(#p2f6d0afcaf)" style="fill: #b94a48"/>
   </g>
   <g id="patch_21">
    <path d="M 332.766234 363.152775 
L 260.298701 363.152775 
L 260.298701 354.271718 
L 332.766234 354.271718 
z
" clip-path="url(#p2f6d0afcaf)" style="fill: #b94a48"/>
   </g>
   <g id="patch_22">
    <path d="M 332.766234 333.549251 
L 260.298701 333.549251 
L 260.298701 324.668194 
L 332.766234 324.668194 
z
" clip-path="url(#p2f6d0afcaf)" style="fill: #b94a48"/>
   </g>
   <g id="patch_23">
    <path d="M 332.766234 303.945727 
L 260.298701 303.945727 
L 260.298701 295.06467 
L 332.766234 295.06467 
z
" clip-path="url(#p2f6d0afcaf)" style="fill: #b94a48"/>
   </g>
   <g id="patch_24">
    <path d="M 332.766234 274.342203 
L 332.766234 274.342203 
L 332.766234 265.461145 
L 332.766234 265.461145 
z
" clip-path="url(#p2f6d0afcaf)" style="fill: #b94a48"/>
   </g>
   <g id="patch_25">
    <path d="M 332.766234 244.738678 
L 332.766234 244.738678 
L 332.766234 235.857621 
L 332.766234 235.857621 
z
" clip-path="url(#p2f6d0afcaf)" style="fill: #b94a48"/>
   </g>
   <g id="patch_26">
    <path d="M 332.766234 215.135154 
L 260.298701 215.135154 
L 260.298701 206.254097 
L 332.766234 206.254097 
z
" clip-path="url(#p2f6d0afcaf)" style="fill: #b94a48"/>
   </g>
   <g id="patch_27">
    <path d="M 332.766234 185.53163 
L 260.298701 185.53163 
L 260.298701 176.650573 
L 332.766234 176.650573 
z
" clip-path="url(#p2f6d0afcaf)" style="fill: #b94a48"/>
   </g>
   <g id="patch_28">
    <path d="M 332.766234 155.928106 
L 187.831169 155.928106 
L 187.831169 147.047048 
L 332.766234 147.047048 
z
" clip-path="url(#p2f6d0afcaf)" style="fill: #b94a48"/>
   </g>
   <g id="patch_29">
    <path d="M 332.766234 126.324581 
L 187.831169 126.324581 
L 187.831169 117.443524 
L 332.766234 117.443524 
z
" clip-path="url(#p2f6d0afcaf)" style="fill: #b94a48"/>
   </g>
   <g id="patch_30">
    <path d="M 332.766234 96.721057 
L 260.298701 96.721057 
L 260.298701 87.84 
L 332.766234 87.84 
z
" clip-path="url(#p2f6d0afcaf)" style="fill: #b94a48"/>
   </g>
   <g id="matplotlib.axis_1">
    <g id="xtick_1">
     <g id="line2d_1">
      <defs>
       <path id="m99746fd4c1" d="M 0 0 
L 0 3.5 
" style="stroke: #6f7782; stroke-width: 0.8"/>
      </defs>
      <g>
       <use xlink:href="#m99746fd4c1" x="115.363636" y="511.2" style="fill: #6f7782; stroke: #6f7782; stroke-width: 0.8"/>
      </g>
     </g>
     <g id="text_1">
      <!-- −3 -->
      <g style="fill: #6f7782" transform="translate(109.466761 524.278125) scale(0.08 -0.08)">
       <defs>
        <path id="DejaVuSans-c9c" d="M 678 2272 
L 4684 2272 
L 4684 1741 
L 678 1741 
L 678 2272 
z
" transform="scale(0.015625)"/>
        <path id="DejaVuSans-16" d="M 2597 2516 
Q 3050 2419 3304 2112 
Q 3559 1806 3559 1356 
Q 3559 666 3084 287 
Q 2609 -91 1734 -91 
Q 1441 -91 1130 -33 
Q 819 25 488 141 
L 488 750 
Q 750 597 1062 519 
Q 1375 441 1716 441 
Q 2309 441 2620 675 
Q 2931 909 2931 1356 
Q 2931 1769 2642 2001 
Q 2353 2234 1838 2234 
L 1294 2234 
L 1294 2753 
L 1863 2753 
Q 2328 2753 2575 2939 
Q 2822 3125 2822 3475 
Q 2822 3834 2567 4026 
Q 2313 4219 1838 4219 
Q 1578 4219 1281 4162 
Q 984 4106 628 3988 
L 628 4550 
Q 988 4650 1302 4700 
Q 1616 4750 1894 4750 
Q 2613 4750 3031 4423 
Q 3450 4097 3450 3541 
Q 3450 3153 3228 2886 
Q 3006 2619 2597 2516 
z
" transform="scale(0.015625)"/>
       </defs>
       <use xlink:href="#DejaVuSans-c9c"/>
       <use xlink:href="#DejaVuSans-16" transform="translate(83.796875 0)"/>
      </g>
     </g>
    </g>
    <g id="xtick_2">
     <g id="line2d_2">
      <g>
       <use xlink:href="#m99746fd4c1" x="187.831169" y="511.2" style="fill: #6f7782; stroke: #6f7782; stroke-width: 0.8"/>
      </g>
     </g>
     <g id="text_2">
      <!-- −2 -->
      <g style="fill: #6f7782" transform="translate(181.934294 524.278125) scale(0.08 -0.08)">
       <defs>
        <path id="DejaVuSans-15" d="M 1228 531 
L 3431 531 
L 3431 0 
L 469 0 
L 469 531 
Q 828 903 1448 1529 
Q 2069 2156 2228 2338 
Q 2531 2678 2651 2914 
Q 2772 3150 2772 3378 
Q 2772 3750 2511 3984 
Q 2250 4219 1831 4219 
Q 1534 4219 1204 4116 
Q 875 4013 500 3803 
L 500 4441 
Q 881 4594 1212 4672 
Q 1544 4750 1819 4750 
Q 2544 4750 2975 4387 
Q 3406 4025 3406 3419 
Q 3406 3131 3298 2873 
Q 3191 2616 2906 2266 
Q 2828 2175 2409 1742 
Q 1991 1309 1228 531 
z
" transform="scale(0.015625)"/>
       </defs>
       <use xlink:href="#DejaVuSans-c9c"/>
       <use xlink:href="#DejaVuSans-15" transform="translate(83.796875 0)"/>
      </g>
     </g>
    </g>
    <g id="xtick_3">
     <g id="line2d_3">
      <g>
       <use xlink:href="#m99746fd4c1" x="260.298701" y="511.2" style="fill: #6f7782; stroke: #6f7782; stroke-width: 0.8"/>
      </g>
     </g>
     <g id="text_3">
      <!-- −1 -->
      <g style="fill: #6f7782" transform="translate(254.401826 524.278125) scale(0.08 -0.08)">
       <defs>
        <path id="DejaVuSans-14" d="M 794 531 
L 1825 531 
L 1825 4091 
L 703 3866 
L 703 4441 
L 1819 4666 
L 2450 4666 
L 2450 531 
L 3481 531 
L 3481 0 
L 794 0 
L 794 531 
z
" transform="scale(0.015625)"/>
       </defs>
       <use xlink:href="#DejaVuSans-c9c"/>
       <use xlink:href="#DejaVuSans-14" transform="translate(83.796875 0)"/>
      </g>
     </g>
    </g>
    <g id="xtick_4">
     <g id="line2d_4">
      <g>
       <use xlink:href="#m99746fd4c1" x="332.766234" y="511.2" style="fill: #6f7782; stroke: #6f7782; stroke-width: 0.8"/>
      </g>
     </g>
     <g id="text_4">
      <!-- 0 -->
      <g style="fill: #6f7782" transform="translate(330.221234 524.278125) scale(0.08 -0.08)">
       <defs>
        <path id="DejaVuSans-13" d="M 2034 4250 
Q 1547 4250 1301 3770 
Q 1056 3291 1056 2328 
Q 1056 1369 1301 889 
Q 1547 409 2034 409 
Q 2525 409 2770 889 
Q 3016 1369 3016 2328 
Q 3016 3291 2770 3770 
Q 2525 4250 2034 4250 
z
M 2034 4750 
Q 2819 4750 3233 4129 
Q 3647 3509 3647 2328 
Q 3647 1150 3233 529 
Q 2819 -91 2034 -91 
Q 1250 -91 836 529 
Q 422 1150 422 2328 
Q 422 3509 836 4129 
Q 1250 4750 2034 4750 
z
" transform="scale(0.015625)"/>
       </defs>
       <use xlink:href="#DejaVuSans-13"/>
      </g>
     </g>
    </g>
    <g id="xtick_5">
     <g id="line2d_5">
      <g>
       <use xlink:href="#m99746fd4c1" x="405.233766" y="511.2" style="fill: #6f7782; stroke: #6f7782; stroke-width: 0.8"/>
      </g>
     </g>
     <g id="text_5">
      <!-- 1 -->
      <g style="fill: #6f7782" transform="translate(402.688766 524.278125) scale(0.08 -0.08)">
       <use xlink:href="#DejaVuSans-14"/>
      </g>
     </g>
    </g>
    <g id="xtick_6">
     <g id="line2d_6">
      <g>
       <use xlink:href="#m99746fd4c1" x="477.701299" y="511.2" style="fill: #6f7782; stroke: #6f7782; stroke-width: 0.8"/>
      </g>
     </g>
     <g id="text_6">
      <!-- 2 -->
      <g style="fill: #6f7782" transform="translate(475.156299 524.278125) scale(0.08 -0.08)">
       <use xlink:href="#DejaVuSans-15"/>
      </g>
     </g>
    </g>
    <g id="xtick_7">
     <g id="line2d_7">
      <g>
       <use xlink:href="#m99746fd4c1" x="550.168831" y="511.2" style="fill: #6f7782; stroke: #6f7782; stroke-width: 0.8"/>
      </g>
     </g>
     <g id="text_7">
      <!-- 3 -->
      <g style="fill: #6f7782" transform="translate(547.623831 524.278125) scale(0.08 -0.08)">
       <use xlink:href="#DejaVuSans-16"/>
      </g>
     </g>
    </g>
    <g id="xtick_8">
     <g id="line2d_8">
      <g>
       <use xlink:href="#m99746fd4c1" x="622.636364" y="511.2" style="fill: #6f7782; stroke: #6f7782; stroke-width: 0.8"/>
      </g>
     </g>
     <g id="text_8">
      <!-- 4 -->
      <g style="fill: #6f7782" transform="translate(620.091364 524.278125) scale(0.08 -0.08)">
       <defs>
        <path id="DejaVuSans-17" d="M 2419 4116 
L 825 1625 
L 2419 1625 
L 2419 4116 
z
M 2253 4666 
L 3047 4666 
L 3047 1625 
L 3713 1625 
L 3713 1100 
L 3047 1100 
L 3047 0 
L 2419 0 
L 2419 1100 
L 313 1100 
L 313 1709 
L 2253 4666 
z
" transform="scale(0.015625)"/>
       </defs>
       <use xlink:href="#DejaVuSans-17"/>
      </g>
     </g>
    </g>
    <g id="text_9">
     <!-- late goals, scored to the right and conceded to the left -->
     <g style="fill: #20242a" transform="translate(232.198437 537.798437) scale(0.1 -0.1)">
      <defs>
       <path id="DejaVuSans-4f" d="M 603 4863 
L 1178 4863 
L 1178 0 
L 603 0 
L 603 4863 
z
" transform="scale(0.015625)"/>
       <path id="DejaVuSans-44" d="M 2194 1759 
Q 1497 1759 1228 1600 
Q 959 1441 959 1056 
Q 959 750 1161 570 
Q 1363 391 1709 391 
Q 2188 391 2477 730 
Q 2766 1069 2766 1631 
L 2766 1759 
L 2194 1759 
z
M 3341 1997 
L 3341 0 
L 2766 0 
L 2766 531 
Q 2569 213 2275 61 
Q 1981 -91 1556 -91 
Q 1019 -91 701 211 
Q 384 513 384 1019 
Q 384 1609 779 1909 
Q 1175 2209 1959 2209 
L 2766 2209 
L 2766 2266 
Q 2766 2663 2505 2880 
Q 2244 3097 1772 3097 
Q 1472 3097 1187 3025 
Q 903 2953 641 2809 
L 641 3341 
Q 956 3463 1253 3523 
Q 1550 3584 1831 3584 
Q 2591 3584 2966 3190 
Q 3341 2797 3341 1997 
z
" transform="scale(0.015625)"/>
       <path id="DejaVuSans-57" d="M 1172 4494 
L 1172 3500 
L 2356 3500 
L 2356 3053 
L 1172 3053 
L 1172 1153 
Q 1172 725 1289 603 
Q 1406 481 1766 481 
L 2356 481 
L 2356 0 
L 1766 0 
Q 1100 0 847 248 
Q 594 497 594 1153 
L 594 3053 
L 172 3053 
L 172 3500 
L 594 3500 
L 594 4494 
L 1172 4494 
z
" transform="scale(0.015625)"/>
       <path id="DejaVuSans-48" d="M 3597 1894 
L 3597 1613 
L 953 1613 
Q 991 1019 1311 708 
Q 1631 397 2203 397 
Q 2534 397 2845 478 
Q 3156 559 3463 722 
L 3463 178 
Q 3153 47 2828 -22 
Q 2503 -91 2169 -91 
Q 1331 -91 842 396 
Q 353 884 353 1716 
Q 353 2575 817 3079 
Q 1281 3584 2069 3584 
Q 2775 3584 3186 3129 
Q 3597 2675 3597 1894 
z
M 3022 2063 
Q 3016 2534 2758 2815 
Q 2500 3097 2075 3097 
Q 1594 3097 1305 2825 
Q 1016 2553 972 2059 
L 3022 2063 
z
" transform="scale(0.015625)"/>
       <path id="DejaVuSans-3" transform="scale(0.015625)"/>
       <path id="DejaVuSans-4a" d="M 2906 1791 
Q 2906 2416 2648 2759 
Q 2391 3103 1925 3103 
Q 1463 3103 1205 2759 
Q 947 2416 947 1791 
Q 947 1169 1205 825 
Q 1463 481 1925 481 
Q 2391 481 2648 825 
Q 2906 1169 2906 1791 
z
M 3481 434 
Q 3481 -459 3084 -895 
Q 2688 -1331 1869 -1331 
Q 1566 -1331 1297 -1286 
Q 1028 -1241 775 -1147 
L 775 -588 
Q 1028 -725 1275 -790 
Q 1522 -856 1778 -856 
Q 2344 -856 2625 -561 
Q 2906 -266 2906 331 
L 2906 616 
Q 2728 306 2450 153 
Q 2172 0 1784 0 
Q 1141 0 747 490 
Q 353 981 353 1791 
Q 353 2603 747 3093 
Q 1141 3584 1784 3584 
Q 2172 3584 2450 3431 
Q 2728 3278 2906 2969 
L 2906 3500 
L 3481 3500 
L 3481 434 
z
" transform="scale(0.015625)"/>
       <path id="DejaVuSans-52" d="M 1959 3097 
Q 1497 3097 1228 2736 
Q 959 2375 959 1747 
Q 959 1119 1226 758 
Q 1494 397 1959 397 
Q 2419 397 2687 759 
Q 2956 1122 2956 1747 
Q 2956 2369 2687 2733 
Q 2419 3097 1959 3097 
z
M 1959 3584 
Q 2709 3584 3137 3096 
Q 3566 2609 3566 1747 
Q 3566 888 3137 398 
Q 2709 -91 1959 -91 
Q 1206 -91 779 398 
Q 353 888 353 1747 
Q 353 2609 779 3096 
Q 1206 3584 1959 3584 
z
" transform="scale(0.015625)"/>
       <path id="DejaVuSans-56" d="M 2834 3397 
L 2834 2853 
Q 2591 2978 2328 3040 
Q 2066 3103 1784 3103 
Q 1356 3103 1142 2972 
Q 928 2841 928 2578 
Q 928 2378 1081 2264 
Q 1234 2150 1697 2047 
L 1894 2003 
Q 2506 1872 2764 1633 
Q 3022 1394 3022 966 
Q 3022 478 2636 193 
Q 2250 -91 1575 -91 
Q 1294 -91 989 -36 
Q 684 19 347 128 
L 347 722 
Q 666 556 975 473 
Q 1284 391 1588 391 
Q 1994 391 2212 530 
Q 2431 669 2431 922 
Q 2431 1156 2273 1281 
Q 2116 1406 1581 1522 
L 1381 1569 
Q 847 1681 609 1914 
Q 372 2147 372 2553 
Q 372 3047 722 3315 
Q 1072 3584 1716 3584 
Q 2034 3584 2315 3537 
Q 2597 3491 2834 3397 
z
" transform="scale(0.015625)"/>
       <path id="DejaVuSans-f" d="M 750 794 
L 1409 794 
L 1409 256 
L 897 -744 
L 494 -744 
L 750 256 
L 750 794 
z
" transform="scale(0.015625)"/>
       <path id="DejaVuSans-46" d="M 3122 3366 
L 3122 2828 
Q 2878 2963 2633 3030 
Q 2388 3097 2138 3097 
Q 1578 3097 1268 2742 
Q 959 2388 959 1747 
Q 959 1106 1268 751 
Q 1578 397 2138 397 
Q 2388 397 2633 464 
Q 2878 531 3122 666 
L 3122 134 
Q 2881 22 2623 -34 
Q 2366 -91 2075 -91 
Q 1284 -91 818 406 
Q 353 903 353 1747 
Q 353 2603 823 3093 
Q 1294 3584 2113 3584 
Q 2378 3584 2631 3529 
Q 2884 3475 3122 3366 
z
" transform="scale(0.015625)"/>
       <path id="DejaVuSans-55" d="M 2631 2963 
Q 2534 3019 2420 3045 
Q 2306 3072 2169 3072 
Q 1681 3072 1420 2755 
Q 1159 2438 1159 1844 
L 1159 0 
L 581 0 
L 581 3500 
L 1159 3500 
L 1159 2956 
Q 1341 3275 1631 3429 
Q 1922 3584 2338 3584 
Q 2397 3584 2469 3576 
Q 2541 3569 2628 3553 
L 2631 2963 
z
" transform="scale(0.015625)"/>
       <path id="DejaVuSans-47" d="M 2906 2969 
L 2906 4863 
L 3481 4863 
L 3481 0 
L 2906 0 
L 2906 525 
Q 2725 213 2448 61 
Q 2172 -91 1784 -91 
Q 1150 -91 751 415 
Q 353 922 353 1747 
Q 353 2572 751 3078 
Q 1150 3584 1784 3584 
Q 2172 3584 2448 3432 
Q 2725 3281 2906 2969 
z
M 947 1747 
Q 947 1113 1208 752 
Q 1469 391 1925 391 
Q 2381 391 2643 752 
Q 2906 1113 2906 1747 
Q 2906 2381 2643 2742 
Q 2381 3103 1925 3103 
Q 1469 3103 1208 2742 
Q 947 2381 947 1747 
z
" transform="scale(0.015625)"/>
       <path id="DejaVuSans-4b" d="M 3513 2113 
L 3513 0 
L 2938 0 
L 2938 2094 
Q 2938 2591 2744 2837 
Q 2550 3084 2163 3084 
Q 1697 3084 1428 2787 
Q 1159 2491 1159 1978 
L 1159 0 
L 581 0 
L 581 4863 
L 1159 4863 
L 1159 2956 
Q 1366 3272 1645 3428 
Q 1925 3584 2291 3584 
Q 2894 3584 3203 3211 
Q 3513 2838 3513 2113 
z
" transform="scale(0.015625)"/>
       <path id="DejaVuSans-4c" d="M 603 3500 
L 1178 3500 
L 1178 0 
L 603 0 
L 603 3500 
z
M 603 4863 
L 1178 4863 
L 1178 4134 
L 603 4134 
L 603 4863 
z
" transform="scale(0.015625)"/>
       <path id="DejaVuSans-51" d="M 3513 2113 
L 3513 0 
L 2938 0 
L 2938 2094 
Q 2938 2591 2744 2837 
Q 2550 3084 2163 3084 
Q 1697 3084 1428 2787 
Q 1159 2491 1159 1978 
L 1159 0 
L 581 0 
L 581 3500 
L 1159 3500 
L 1159 2956 
Q 1366 3272 1645 3428 
Q 1925 3584 2291 3584 
Q 2894 3584 3203 3211 
Q 3513 2838 3513 2113 
z
" transform="scale(0.015625)"/>
       <path id="DejaVuSans-49" d="M 2375 4863 
L 2375 4384 
L 1825 4384 
Q 1516 4384 1395 4259 
Q 1275 4134 1275 3809 
L 1275 3500 
L 2222 3500 
L 2222 3053 
L 1275 3053 
L 1275 0 
L 697 0 
L 697 3053 
L 147 3053 
L 147 3500 
L 697 3500 
L 697 3744 
Q 697 4328 969 4595 
Q 1241 4863 1831 4863 
L 2375 4863 
z
" transform="scale(0.015625)"/>
      </defs>
      <use xlink:href="#DejaVuSans-4f"/>
      <use xlink:href="#DejaVuSans-44" transform="translate(27.78125 0)"/>
      <use xlink:href="#DejaVuSans-57" transform="translate(89.0625 0)"/>
      <use xlink:href="#DejaVuSans-48" transform="translate(128.265625 0)"/>
      <use xlink:href="#DejaVuSans-3" transform="translate(189.796875 0)"/>
      <use xlink:href="#DejaVuSans-4a" transform="translate(221.578125 0)"/>
      <use xlink:href="#DejaVuSans-52" transform="translate(285.0625 0)"/>
      <use xlink:href="#DejaVuSans-44" transform="translate(346.25 0)"/>
      <use xlink:href="#DejaVuSans-4f" transform="translate(407.53125 0)"/>
      <use xlink:href="#DejaVuSans-56" transform="translate(435.3125 0)"/>
      <use xlink:href="#DejaVuSans-f" transform="translate(487.40625 0)"/>
      <use xlink:href="#DejaVuSans-3" transform="translate(519.1875 0)"/>
      <use xlink:href="#DejaVuSans-56" transform="translate(550.96875 0)"/>
      <use xlink:href="#DejaVuSans-46" transform="translate(603.0625 0)"/>
      <use xlink:href="#DejaVuSans-52" transform="translate(658.046875 0)"/>
      <use xlink:href="#DejaVuSans-55" transform="translate(719.234375 0)"/>
      <use xlink:href="#DejaVuSans-48" transform="translate(758.140625 0)"/>
      <use xlink:href="#DejaVuSans-47" transform="translate(819.671875 0)"/>
      <use xlink:href="#DejaVuSans-3" transform="translate(883.15625 0)"/>
      <use xlink:href="#DejaVuSans-57" transform="translate(914.9375 0)"/>
      <use xlink:href="#DejaVuSans-52" transform="translate(954.140625 0)"/>
      <use xlink:href="#DejaVuSans-3" transform="translate(1015.328125 0)"/>
      <use xlink:href="#DejaVuSans-57" transform="translate(1047.109375 0)"/>
      <use xlink:href="#DejaVuSans-4b" transform="translate(1086.3125 0)"/>
      <use xlink:href="#DejaVuSans-48" transform="translate(1149.6875 0)"/>
      <use xlink:href="#DejaVuSans-3" transform="translate(1211.21875 0)"/>
      <use xlink:href="#DejaVuSans-55" transform="translate(1243 0)"/>
      <use xlink:href="#DejaVuSans-4c" transform="translate(1284.109375 0)"/>
      <use xlink:href="#DejaVuSans-4a" transform="translate(1311.890625 0)"/>
      <use xlink:href="#DejaVuSans-4b" transform="translate(1375.375 0)"/>
      <use xlink:href="#DejaVuSans-57" transform="translate(1438.75 0)"/>
      <use xlink:href="#DejaVuSans-3" transform="translate(1477.953125 0)"/>
      <use xlink:href="#DejaVuSans-44" transform="translate(1509.734375 0)"/>
      <use xlink:href="#DejaVuSans-51" transform="translate(1571.015625 0)"/>
      <use xlink:href="#DejaVuSans-47" transform="translate(1634.390625 0)"/>
      <use xlink:href="#DejaVuSans-3" transform="translate(1697.875 0)"/>
      <use xlink:href="#DejaVuSans-46" transform="translate(1729.65625 0)"/>
      <use xlink:href="#DejaVuSans-52" transform="translate(1784.640625 0)"/>
      <use xlink:href="#DejaVuSans-51" transform="translate(1845.828125 0)"/>
      <use xlink:href="#DejaVuSans-46" transform="translate(1909.203125 0)"/>
      <use xlink:href="#DejaVuSans-48" transform="translate(1964.1875 0)"/>
      <use xlink:href="#DejaVuSans-47" transform="translate(2025.71875 0)"/>
      <use xlink:href="#DejaVuSans-48" transform="translate(2089.203125 0)"/>
      <use xlink:href="#DejaVuSans-47" transform="translate(2150.734375 0)"/>
      <use xlink:href="#DejaVuSans-3" transform="translate(2214.21875 0)"/>
      <use xlink:href="#DejaVuSans-57" transform="translate(2246 0)"/>
      <use xlink:href="#DejaVuSans-52" transform="translate(2285.203125 0)"/>
      <use xlink:href="#DejaVuSans-3" transform="translate(2346.390625 0)"/>
      <use xlink:href="#DejaVuSans-57" transform="translate(2378.171875 0)"/>
      <use xlink:href="#DejaVuSans-4b" transform="translate(2417.375 0)"/>
      <use xlink:href="#DejaVuSans-48" transform="translate(2480.75 0)"/>
      <use xlink:href="#DejaVuSans-3" transform="translate(2542.28125 0)"/>
      <use xlink:href="#DejaVuSans-4f" transform="translate(2574.0625 0)"/>
      <use xlink:href="#DejaVuSans-48" transform="translate(2601.84375 0)"/>
      <use xlink:href="#DejaVuSans-49" transform="translate(2663.375 0)"/>
      <use xlink:href="#DejaVuSans-57" transform="translate(2696.828125 0)"/>
     </g>
    </g>
   </g>
   <g id="matplotlib.axis_2">
    <g id="ytick_1">
     <g id="line2d_9">
      <defs>
       <path id="m7c41f82f21" d="M 0 0 
L -3.5 0 
" style="stroke: #6f7782; stroke-width: 0.8"/>
      </defs>
      <g>
       <use xlink:href="#m7c41f82f21" x="90" y="481.862907" style="fill: #6f7782; stroke: #6f7782; stroke-width: 0.8"/>
      </g>
     </g>
     <g id="text_10">
      <!-- MAR -->
      <g style="fill: #6f7782" transform="translate(65.06625 484.90197) scale(0.08 -0.08)">
       <defs>
        <path id="DejaVuSans-30" d="M 628 4666 
L 1569 4666 
L 2759 1491 
L 3956 4666 
L 4897 4666 
L 4897 0 
L 4281 0 
L 4281 4097 
L 3078 897 
L 2444 897 
L 1241 4097 
L 1241 0 
L 628 0 
L 628 4666 
z
" transform="scale(0.015625)"/>
        <path id="DejaVuSans-24" d="M 2188 4044 
L 1331 1722 
L 3047 1722 
L 2188 4044 
z
M 1831 4666 
L 2547 4666 
L 4325 0 
L 3669 0 
L 3244 1197 
L 1141 1197 
L 716 0 
L 50 0 
L 1831 4666 
z
" transform="scale(0.015625)"/>
        <path id="DejaVuSans-35" d="M 2841 2188 
Q 3044 2119 3236 1894 
Q 3428 1669 3622 1275 
L 4263 0 
L 3584 0 
L 2988 1197 
Q 2756 1666 2539 1819 
Q 2322 1972 1947 1972 
L 1259 1972 
L 1259 0 
L 628 0 
L 628 4666 
L 2053 4666 
Q 2853 4666 3247 4331 
Q 3641 3997 3641 3322 
Q 3641 2881 3436 2590 
Q 3231 2300 2841 2188 
z
M 1259 4147 
L 1259 2491 
L 2053 2491 
Q 2509 2491 2742 2702 
Q 2975 2913 2975 3322 
Q 2975 3731 2742 3939 
Q 2509 4147 2053 4147 
L 1259 4147 
z
" transform="scale(0.015625)"/>
       </defs>
       <use xlink:href="#DejaVuSans-30"/>
       <use xlink:href="#DejaVuSans-24" transform="translate(86.28125 0)"/>
       <use xlink:href="#DejaVuSans-35" transform="translate(154.6875 0)"/>
      </g>
     </g>
    </g>
    <g id="ytick_2">
     <g id="line2d_10">
      <g>
       <use xlink:href="#m7c41f82f21" x="90" y="452.259383" style="fill: #6f7782; stroke: #6f7782; stroke-width: 0.8"/>
      </g>
     </g>
     <g id="text_11">
      <!-- JPN -->
      <g style="fill: #6f7782" transform="translate(69.83125 455.298446) scale(0.08 -0.08)">
       <defs>
        <path id="DejaVuSans-2d" d="M 628 4666 
L 1259 4666 
L 1259 325 
Q 1259 -519 939 -900 
Q 619 -1281 -91 -1281 
L -331 -1281 
L -331 -750 
L -134 -750 
Q 284 -750 456 -515 
Q 628 -281 628 325 
L 628 4666 
z
" transform="scale(0.015625)"/>
        <path id="DejaVuSans-33" d="M 1259 4147 
L 1259 2394 
L 2053 2394 
Q 2494 2394 2734 2622 
Q 2975 2850 2975 3272 
Q 2975 3691 2734 3919 
Q 2494 4147 2053 4147 
L 1259 4147 
z
M 628 4666 
L 2053 4666 
Q 2838 4666 3239 4311 
Q 3641 3956 3641 3272 
Q 3641 2581 3239 2228 
Q 2838 1875 2053 1875 
L 1259 1875 
L 1259 0 
L 628 0 
L 628 4666 
z
" transform="scale(0.015625)"/>
        <path id="DejaVuSans-31" d="M 628 4666 
L 1478 4666 
L 3547 763 
L 3547 4666 
L 4159 4666 
L 4159 0 
L 3309 0 
L 1241 3903 
L 1241 0 
L 628 0 
L 628 4666 
z
" transform="scale(0.015625)"/>
       </defs>
       <use xlink:href="#DejaVuSans-2d"/>
       <use xlink:href="#DejaVuSans-33" transform="translate(29.5 0)"/>
       <use xlink:href="#DejaVuSans-31" transform="translate(89.796875 0)"/>
      </g>
     </g>
    </g>
    <g id="ytick_3">
     <g id="line2d_11">
      <g>
       <use xlink:href="#m7c41f82f21" x="90" y="422.655859" style="fill: #6f7782; stroke: #6f7782; stroke-width: 0.8"/>
      </g>
     </g>
     <g id="text_12">
      <!-- AUT -->
      <g style="fill: #6f7782" transform="translate(66.78625 425.694922) scale(0.08 -0.08)">
       <defs>
        <path id="DejaVuSans-38" d="M 556 4666 
L 1191 4666 
L 1191 1831 
Q 1191 1081 1462 751 
Q 1734 422 2344 422 
Q 2950 422 3222 751 
Q 3494 1081 3494 1831 
L 3494 4666 
L 4128 4666 
L 4128 1753 
Q 4128 841 3676 375 
Q 3225 -91 2344 -91 
Q 1459 -91 1007 375 
Q 556 841 556 1753 
L 556 4666 
z
" transform="scale(0.015625)"/>
        <path id="DejaVuSans-37" d="M -19 4666 
L 3928 4666 
L 3928 4134 
L 2272 4134 
L 2272 0 
L 1638 0 
L 1638 4134 
L -19 4134 
L -19 4666 
z
" transform="scale(0.015625)"/>
       </defs>
       <use xlink:href="#DejaVuSans-24"/>
       <use xlink:href="#DejaVuSans-38" transform="translate(68.40625 0)"/>
       <use xlink:href="#DejaVuSans-37" transform="translate(141.59375 0)"/>
      </g>
     </g>
    </g>
    <g id="ytick_4">
     <g id="line2d_12">
      <g>
       <use xlink:href="#m7c41f82f21" x="90" y="393.052335" style="fill: #6f7782; stroke: #6f7782; stroke-width: 0.8"/>
      </g>
     </g>
     <g id="text_13">
      <!-- ALG -->
      <g style="fill: #6f7782" transform="translate(66.87125 396.091397) scale(0.08 -0.08)">
       <defs>
        <path id="DejaVuSans-2f" d="M 628 4666 
L 1259 4666 
L 1259 531 
L 3531 531 
L 3531 0 
L 628 0 
L 628 4666 
z
" transform="scale(0.015625)"/>
        <path id="DejaVuSans-2a" d="M 3809 666 
L 3809 1919 
L 2778 1919 
L 2778 2438 
L 4434 2438 
L 4434 434 
Q 4069 175 3628 42 
Q 3188 -91 2688 -91 
Q 1594 -91 976 548 
Q 359 1188 359 2328 
Q 359 3472 976 4111 
Q 1594 4750 2688 4750 
Q 3144 4750 3555 4637 
Q 3966 4525 4313 4306 
L 4313 3634 
Q 3963 3931 3569 4081 
Q 3175 4231 2741 4231 
Q 1884 4231 1454 3753 
Q 1025 3275 1025 2328 
Q 1025 1384 1454 906 
Q 1884 428 2741 428 
Q 3075 428 3337 486 
Q 3600 544 3809 666 
z
" transform="scale(0.015625)"/>
       </defs>
       <use xlink:href="#DejaVuSans-24"/>
       <use xlink:href="#DejaVuSans-2f" transform="translate(68.40625 0)"/>
       <use xlink:href="#DejaVuSans-2a" transform="translate(124.125 0)"/>
      </g>
     </g>
    </g>
    <g id="ytick_5">
     <g id="line2d_13">
      <g>
       <use xlink:href="#m7c41f82f21" x="90" y="363.448811" style="fill: #6f7782; stroke: #6f7782; stroke-width: 0.8"/>
      </g>
     </g>
     <g id="text_14">
      <!-- COD -->
      <g style="fill: #6f7782" transform="translate(64.95625 366.487873) scale(0.08 -0.08)">
       <defs>
        <path id="DejaVuSans-26" d="M 4122 4306 
L 4122 3641 
Q 3803 3938 3442 4084 
Q 3081 4231 2675 4231 
Q 1875 4231 1450 3742 
Q 1025 3253 1025 2328 
Q 1025 1406 1450 917 
Q 1875 428 2675 428 
Q 3081 428 3442 575 
Q 3803 722 4122 1019 
L 4122 359 
Q 3791 134 3420 21 
Q 3050 -91 2638 -91 
Q 1578 -91 968 557 
Q 359 1206 359 2328 
Q 359 3453 968 4101 
Q 1578 4750 2638 4750 
Q 3056 4750 3426 4639 
Q 3797 4528 4122 4306 
z
" transform="scale(0.015625)"/>
        <path id="DejaVuSans-32" d="M 2522 4238 
Q 1834 4238 1429 3725 
Q 1025 3213 1025 2328 
Q 1025 1447 1429 934 
Q 1834 422 2522 422 
Q 3209 422 3611 934 
Q 4013 1447 4013 2328 
Q 4013 3213 3611 3725 
Q 3209 4238 2522 4238 
z
M 2522 4750 
Q 3503 4750 4090 4092 
Q 4678 3434 4678 2328 
Q 4678 1225 4090 567 
Q 3503 -91 2522 -91 
Q 1538 -91 948 565 
Q 359 1222 359 2328 
Q 359 3434 948 4092 
Q 1538 4750 2522 4750 
z
" transform="scale(0.015625)"/>
        <path id="DejaVuSans-27" d="M 1259 4147 
L 1259 519 
L 2022 519 
Q 2988 519 3436 956 
Q 3884 1394 3884 2338 
Q 3884 3275 3436 3711 
Q 2988 4147 2022 4147 
L 1259 4147 
z
M 628 4666 
L 1925 4666 
Q 3281 4666 3915 4102 
Q 4550 3538 4550 2338 
Q 4550 1131 3912 565 
Q 3275 0 1925 0 
L 628 0 
L 628 4666 
z
" transform="scale(0.015625)"/>
       </defs>
       <use xlink:href="#DejaVuSans-26"/>
       <use xlink:href="#DejaVuSans-32" transform="translate(69.828125 0)"/>
       <use xlink:href="#DejaVuSans-27" transform="translate(148.546875 0)"/>
      </g>
     </g>
    </g>
    <g id="ytick_6">
     <g id="line2d_14">
      <g>
       <use xlink:href="#m7c41f82f21" x="90" y="333.845286" style="fill: #6f7782; stroke: #6f7782; stroke-width: 0.8"/>
      </g>
     </g>
     <g id="text_15">
      <!-- BEL -->
      <g style="fill: #6f7782" transform="translate(67.99875 336.884349) scale(0.08 -0.08)">
       <defs>
        <path id="DejaVuSans-25" d="M 1259 2228 
L 1259 519 
L 2272 519 
Q 2781 519 3026 730 
Q 3272 941 3272 1375 
Q 3272 1813 3026 2020 
Q 2781 2228 2272 2228 
L 1259 2228 
z
M 1259 4147 
L 1259 2741 
L 2194 2741 
Q 2656 2741 2882 2914 
Q 3109 3088 3109 3444 
Q 3109 3797 2882 3972 
Q 2656 4147 2194 4147 
L 1259 4147 
z
M 628 4666 
L 2241 4666 
Q 2963 4666 3353 4366 
Q 3744 4066 3744 3513 
Q 3744 3084 3544 2831 
Q 3344 2578 2956 2516 
Q 3422 2416 3680 2098 
Q 3938 1781 3938 1306 
Q 3938 681 3513 340 
Q 3088 0 2303 0 
L 628 0 
L 628 4666 
z
" transform="scale(0.015625)"/>
        <path id="DejaVuSans-28" d="M 628 4666 
L 3578 4666 
L 3578 4134 
L 1259 4134 
L 1259 2753 
L 3481 2753 
L 3481 2222 
L 1259 2222 
L 1259 531 
L 3634 531 
L 3634 0 
L 628 0 
L 628 4666 
z
" transform="scale(0.015625)"/>
       </defs>
       <use xlink:href="#DejaVuSans-25"/>
       <use xlink:href="#DejaVuSans-28" transform="translate(68.609375 0)"/>
       <use xlink:href="#DejaVuSans-2f" transform="translate(131.796875 0)"/>
      </g>
     </g>
    </g>
    <g id="ytick_7">
     <g id="line2d_15">
      <g>
       <use xlink:href="#m7c41f82f21" x="90" y="304.241762" style="fill: #6f7782; stroke: #6f7782; stroke-width: 0.8"/>
      </g>
     </g>
     <g id="text_16">
      <!-- SWE -->
      <g style="fill: #6f7782" transform="translate(64.95625 307.280825) scale(0.08 -0.08)">
       <defs>
        <path id="DejaVuSans-36" d="M 3425 4513 
L 3425 3897 
Q 3066 4069 2747 4153 
Q 2428 4238 2131 4238 
Q 1616 4238 1336 4038 
Q 1056 3838 1056 3469 
Q 1056 3159 1242 3001 
Q 1428 2844 1947 2747 
L 2328 2669 
Q 3034 2534 3370 2195 
Q 3706 1856 3706 1288 
Q 3706 609 3251 259 
Q 2797 -91 1919 -91 
Q 1588 -91 1214 -16 
Q 841 59 441 206 
L 441 856 
Q 825 641 1194 531 
Q 1563 422 1919 422 
Q 2459 422 2753 634 
Q 3047 847 3047 1241 
Q 3047 1584 2836 1778 
Q 2625 1972 2144 2069 
L 1759 2144 
Q 1053 2284 737 2584 
Q 422 2884 422 3419 
Q 422 4038 858 4394 
Q 1294 4750 2059 4750 
Q 2388 4750 2728 4690 
Q 3069 4631 3425 4513 
z
" transform="scale(0.015625)"/>
        <path id="DejaVuSans-3a" d="M 213 4666 
L 850 4666 
L 1831 722 
L 2809 4666 
L 3519 4666 
L 4500 722 
L 5478 4666 
L 6119 4666 
L 4947 0 
L 4153 0 
L 3169 4050 
L 2175 0 
L 1381 0 
L 213 4666 
z
" transform="scale(0.015625)"/>
       </defs>
       <use xlink:href="#DejaVuSans-36"/>
       <use xlink:href="#DejaVuSans-3a" transform="translate(63.484375 0)"/>
       <use xlink:href="#DejaVuSans-28" transform="translate(162.359375 0)"/>
      </g>
     </g>
    </g>
    <g id="ytick_8">
     <g id="line2d_16">
      <g>
       <use xlink:href="#m7c41f82f21" x="90" y="274.638238" style="fill: #6f7782; stroke: #6f7782; stroke-width: 0.8"/>
      </g>
     </g>
     <g id="text_17">
      <!-- COL -->
      <g style="fill: #6f7782" transform="translate(66.65875 277.6773) scale(0.08 -0.08)">
       <use xlink:href="#DejaVuSans-26"/>
       <use xlink:href="#DejaVuSans-32" transform="translate(69.828125 0)"/>
       <use xlink:href="#DejaVuSans-2f" transform="translate(148.546875 0)"/>
      </g>
     </g>
    </g>
    <g id="ytick_9">
     <g id="line2d_17">
      <g>
       <use xlink:href="#m7c41f82f21" x="90" y="245.034714" style="fill: #6f7782; stroke: #6f7782; stroke-width: 0.8"/>
      </g>
     </g>
     <g id="text_18">
      <!-- ARG -->
      <g style="fill: #6f7782" transform="translate(65.77 248.073776) scale(0.08 -0.08)">
       <use xlink:href="#DejaVuSans-24"/>
       <use xlink:href="#DejaVuSans-35" transform="translate(68.40625 0)"/>
       <use xlink:href="#DejaVuSans-2a" transform="translate(137.890625 0)"/>
      </g>
     </g>
    </g>
    <g id="ytick_10">
     <g id="line2d_18">
      <g>
       <use xlink:href="#m7c41f82f21" x="90" y="215.431189" style="fill: #6f7782; stroke: #6f7782; stroke-width: 0.8"/>
      </g>
     </g>
     <g id="text_19">
      <!-- GER -->
      <g style="fill: #6f7782" transform="translate(66.1875 218.470252) scale(0.08 -0.08)">
       <use xlink:href="#DejaVuSans-2a"/>
       <use xlink:href="#DejaVuSans-28" transform="translate(77.484375 0)"/>
       <use xlink:href="#DejaVuSans-35" transform="translate(140.671875 0)"/>
      </g>
     </g>
    </g>
    <g id="ytick_11">
     <g id="line2d_19">
      <g>
       <use xlink:href="#m7c41f82f21" x="90" y="185.827665" style="fill: #6f7782; stroke: #6f7782; stroke-width: 0.8"/>
      </g>
     </g>
     <g id="text_20">
      <!-- FRA -->
      <g style="fill: #6f7782" transform="translate(67.69125 188.866728) scale(0.08 -0.08)">
       <defs>
        <path id="DejaVuSans-29" d="M 628 4666 
L 3309 4666 
L 3309 4134 
L 1259 4134 
L 1259 2759 
L 3109 2759 
L 3109 2228 
L 1259 2228 
L 1259 0 
L 628 0 
L 628 4666 
z
" transform="scale(0.015625)"/>
       </defs>
       <use xlink:href="#DejaVuSans-29"/>
       <use xlink:href="#DejaVuSans-35" transform="translate(57.515625 0)"/>
       <use xlink:href="#DejaVuSans-24" transform="translate(122.953125 0)"/>
      </g>
     </g>
    </g>
    <g id="ytick_12">
     <g id="line2d_20">
      <g>
       <use xlink:href="#m7c41f82f21" x="90" y="156.224141" style="fill: #6f7782; stroke: #6f7782; stroke-width: 0.8"/>
      </g>
     </g>
     <g id="text_21">
      <!-- SEN -->
      <g style="fill: #6f7782" transform="translate(66.88125 159.263203) scale(0.08 -0.08)">
       <use xlink:href="#DejaVuSans-36"/>
       <use xlink:href="#DejaVuSans-28" transform="translate(63.484375 0)"/>
       <use xlink:href="#DejaVuSans-31" transform="translate(126.671875 0)"/>
      </g>
     </g>
    </g>
    <g id="ytick_13">
     <g id="line2d_21">
      <g>
       <use xlink:href="#m7c41f82f21" x="90" y="126.620617" style="fill: #6f7782; stroke: #6f7782; stroke-width: 0.8"/>
      </g>
     </g>
     <g id="text_22">
      <!-- SUI -->
      <g style="fill: #6f7782" transform="translate(69.70625 129.659679) scale(0.08 -0.08)">
       <defs>
        <path id="DejaVuSans-2c" d="M 628 4666 
L 1259 4666 
L 1259 0 
L 628 0 
L 628 4666 
z
" transform="scale(0.015625)"/>
       </defs>
       <use xlink:href="#DejaVuSans-36"/>
       <use xlink:href="#DejaVuSans-38" transform="translate(63.484375 0)"/>
       <use xlink:href="#DejaVuSans-2c" transform="translate(136.671875 0)"/>
      </g>
     </g>
    </g>
    <g id="ytick_14">
     <g id="line2d_22">
      <g>
       <use xlink:href="#m7c41f82f21" x="90" y="97.017093" style="fill: #6f7782; stroke: #6f7782; stroke-width: 0.8"/>
      </g>
     </g>
     <g id="text_23">
      <!-- CAN -->
      <g style="fill: #6f7782" transform="translate(65.95625 100.056155) scale(0.08 -0.08)">
       <use xlink:href="#DejaVuSans-26"/>
       <use xlink:href="#DejaVuSans-24" transform="translate(69.828125 0)"/>
       <use xlink:href="#DejaVuSans-31" transform="translate(138.234375 0)"/>
      </g>
     </g>
    </g>
   </g>
   <g id="line2d_23">
    <path d="M 332.766234 511.2 
L 332.766234 67.68 
" clip-path="url(#p2f6d0afcaf)" style="fill: none; stroke: #20242a; stroke-linecap: square"/>
   </g>
   <g id="patch_31">
    <path d="M 90 511.2 
L 90 67.68 
" style="fill: none; stroke: #a9a397; stroke-width: 0.8; stroke-linejoin: miter; stroke-linecap: square"/>
   </g>
   <g id="patch_32">
    <path d="M 90 511.2 
L 648 511.2 
" style="fill: none; stroke: #a9a397; stroke-width: 0.8; stroke-linejoin: miter; stroke-linecap: square"/>
   </g>
   <g id="text_24">
    <!-- Late-window closers and leakier finishes -->
    <g style="fill: #20242a" transform="translate(90 61.68) scale(0.18 -0.18)">
     <defs>
      <path id="DejaVuSans-Bold-2f" d="M 588 4666 
L 1791 4666 
L 1791 909 
L 3903 909 
L 3903 0 
L 588 0 
L 588 4666 
z
" transform="scale(0.015625)"/>
      <path id="DejaVuSans-Bold-44" d="M 2106 1575 
Q 1756 1575 1579 1456 
Q 1403 1338 1403 1106 
Q 1403 894 1545 773 
Q 1688 653 1941 653 
Q 2256 653 2472 879 
Q 2688 1106 2688 1447 
L 2688 1575 
L 2106 1575 
z
M 3816 1997 
L 3816 0 
L 2688 0 
L 2688 519 
Q 2463 200 2181 54 
Q 1900 -91 1497 -91 
Q 953 -91 614 226 
Q 275 544 275 1050 
Q 275 1666 698 1953 
Q 1122 2241 2028 2241 
L 2688 2241 
L 2688 2328 
Q 2688 2594 2478 2717 
Q 2269 2841 1825 2841 
Q 1466 2841 1156 2769 
Q 847 2697 581 2553 
L 581 3406 
Q 941 3494 1303 3539 
Q 1666 3584 2028 3584 
Q 2975 3584 3395 3211 
Q 3816 2838 3816 1997 
z
" transform="scale(0.015625)"/>
      <path id="DejaVuSans-Bold-57" d="M 1759 4494 
L 1759 3500 
L 2913 3500 
L 2913 2700 
L 1759 2700 
L 1759 1216 
Q 1759 972 1856 886 
Q 1953 800 2241 800 
L 2816 800 
L 2816 0 
L 1856 0 
Q 1194 0 917 276 
Q 641 553 641 1216 
L 641 2700 
L 84 2700 
L 84 3500 
L 641 3500 
L 641 4494 
L 1759 4494 
z
" transform="scale(0.015625)"/>
      <path id="DejaVuSans-Bold-48" d="M 4031 1759 
L 4031 1441 
L 1416 1441 
Q 1456 1047 1700 850 
Q 1944 653 2381 653 
Q 2734 653 3104 758 
Q 3475 863 3866 1075 
L 3866 213 
Q 3469 63 3072 -14 
Q 2675 -91 2278 -91 
Q 1328 -91 801 392 
Q 275 875 275 1747 
Q 275 2603 792 3093 
Q 1309 3584 2216 3584 
Q 3041 3584 3536 3087 
Q 4031 2591 4031 1759 
z
M 2881 2131 
Q 2881 2450 2695 2645 
Q 2509 2841 2209 2841 
Q 1884 2841 1681 2658 
Q 1478 2475 1428 2131 
L 2881 2131 
z
" transform="scale(0.015625)"/>
      <path id="DejaVuSans-Bold-10" d="M 347 2297 
L 2309 2297 
L 2309 1388 
L 347 1388 
L 347 2297 
z
" transform="scale(0.015625)"/>
      <path id="DejaVuSans-Bold-5a" d="M 225 3500 
L 1313 3500 
L 1900 1088 
L 2491 3500 
L 3425 3500 
L 4013 1113 
L 4603 3500 
L 5691 3500 
L 4769 0 
L 3547 0 
L 2956 2406 
L 2369 0 
L 1147 0 
L 225 3500 
z
" transform="scale(0.015625)"/>
      <path id="DejaVuSans-Bold-4c" d="M 538 3500 
L 1656 3500 
L 1656 0 
L 538 0 
L 538 3500 
z
M 538 4863 
L 1656 4863 
L 1656 3950 
L 538 3950 
L 538 4863 
z
" transform="scale(0.015625)"/>
      <path id="DejaVuSans-Bold-51" d="M 4056 2131 
L 4056 0 
L 2931 0 
L 2931 347 
L 2931 1631 
Q 2931 2084 2911 2256 
Q 2891 2428 2841 2509 
Q 2775 2619 2662 2680 
Q 2550 2741 2406 2741 
Q 2056 2741 1856 2470 
Q 1656 2200 1656 1722 
L 1656 0 
L 538 0 
L 538 3500 
L 1656 3500 
L 1656 2988 
Q 1909 3294 2193 3439 
Q 2478 3584 2822 3584 
Q 3428 3584 3742 3212 
Q 4056 2841 4056 2131 
z
" transform="scale(0.015625)"/>
      <path id="DejaVuSans-Bold-47" d="M 2919 2988 
L 2919 4863 
L 4044 4863 
L 4044 0 
L 2919 0 
L 2919 506 
Q 2688 197 2409 53 
Q 2131 -91 1766 -91 
Q 1119 -91 703 423 
Q 288 938 288 1747 
Q 288 2556 703 3070 
Q 1119 3584 1766 3584 
Q 2128 3584 2408 3439 
Q 2688 3294 2919 2988 
z
M 2181 722 
Q 2541 722 2730 984 
Q 2919 1247 2919 1747 
Q 2919 2247 2730 2509 
Q 2541 2772 2181 2772 
Q 1825 2772 1636 2509 
Q 1447 2247 1447 1747 
Q 1447 1247 1636 984 
Q 1825 722 2181 722 
z
" transform="scale(0.015625)"/>
      <path id="DejaVuSans-Bold-52" d="M 2203 2784 
Q 1831 2784 1636 2517 
Q 1441 2250 1441 1747 
Q 1441 1244 1636 976 
Q 1831 709 2203 709 
Q 2569 709 2762 976 
Q 2956 1244 2956 1747 
Q 2956 2250 2762 2517 
Q 2569 2784 2203 2784 
z
M 2203 3584 
Q 3106 3584 3614 3096 
Q 4122 2609 4122 1747 
Q 4122 884 3614 396 
Q 3106 -91 2203 -91 
Q 1297 -91 786 396 
Q 275 884 275 1747 
Q 275 2609 786 3096 
Q 1297 3584 2203 3584 
z
" transform="scale(0.015625)"/>
      <path id="DejaVuSans-Bold-3" transform="scale(0.015625)"/>
      <path id="DejaVuSans-Bold-46" d="M 3366 3391 
L 3366 2478 
Q 3138 2634 2908 2709 
Q 2678 2784 2431 2784 
Q 1963 2784 1702 2511 
Q 1441 2238 1441 1747 
Q 1441 1256 1702 982 
Q 1963 709 2431 709 
Q 2694 709 2930 787 
Q 3166 866 3366 1019 
L 3366 103 
Q 3103 6 2833 -42 
Q 2563 -91 2291 -91 
Q 1344 -91 809 395 
Q 275 881 275 1747 
Q 275 2613 809 3098 
Q 1344 3584 2291 3584 
Q 2566 3584 2833 3536 
Q 3100 3488 3366 3391 
z
" transform="scale(0.015625)"/>
      <path id="DejaVuSans-Bold-4f" d="M 538 4863 
L 1656 4863 
L 1656 0 
L 538 0 
L 538 4863 
z
" transform="scale(0.015625)"/>
      <path id="DejaVuSans-Bold-56" d="M 3272 3391 
L 3272 2541 
Q 2913 2691 2578 2766 
Q 2244 2841 1947 2841 
Q 1628 2841 1473 2761 
Q 1319 2681 1319 2516 
Q 1319 2381 1436 2309 
Q 1553 2238 1856 2203 
L 2053 2175 
Q 2913 2066 3209 1816 
Q 3506 1566 3506 1031 
Q 3506 472 3093 190 
Q 2681 -91 1863 -91 
Q 1516 -91 1145 -36 
Q 775 19 384 128 
L 384 978 
Q 719 816 1070 734 
Q 1422 653 1784 653 
Q 2113 653 2278 743 
Q 2444 834 2444 1013 
Q 2444 1163 2330 1236 
Q 2216 1309 1875 1350 
L 1678 1375 
Q 931 1469 631 1722 
Q 331 1975 331 2491 
Q 331 3047 712 3315 
Q 1094 3584 1881 3584 
Q 2191 3584 2531 3537 
Q 2872 3491 3272 3391 
z
" transform="scale(0.015625)"/>
      <path id="DejaVuSans-Bold-55" d="M 3138 2547 
Q 2991 2616 2845 2648 
Q 2700 2681 2553 2681 
Q 2122 2681 1889 2404 
Q 1656 2128 1656 1613 
L 1656 0 
L 538 0 
L 538 3500 
L 1656 3500 
L 1656 2925 
Q 1872 3269 2151 3426 
Q 2431 3584 2822 3584 
Q 2878 3584 2943 3579 
Q 3009 3575 3134 3559 
L 3138 2547 
z
" transform="scale(0.015625)"/>
      <path id="DejaVuSans-Bold-4e" d="M 538 4863 
L 1656 4863 
L 1656 2216 
L 2944 3500 
L 4244 3500 
L 2534 1894 
L 4378 0 
L 3022 0 
L 1656 1459 
L 1656 0 
L 538 0 
L 538 4863 
z
" transform="scale(0.015625)"/>
      <path id="DejaVuSans-Bold-13ab" d="M 3078 4863 
L 4206 4863 
L 4206 3950 
L 3078 3950 
L 3078 4863 
z
M 2847 4863 
L 2847 4128 
L 2228 4128 
Q 1994 4128 1903 4042 
Q 1813 3956 1813 3744 
L 1813 3500 
L 4206 3500 
L 4206 0 
L 3078 0 
L 3078 2700 
L 1813 2700 
L 1813 0 
L 684 0 
L 684 2700 
L 134 2700 
L 134 3500 
L 684 3500 
L 684 3744 
Q 684 4316 1003 4589 
Q 1322 4863 1991 4863 
L 2847 4863 
z
" transform="scale(0.015625)"/>
      <path id="DejaVuSans-Bold-4b" d="M 4056 2131 
L 4056 0 
L 2931 0 
L 2931 347 
L 2931 1625 
Q 2931 2084 2911 2256 
Q 2891 2428 2841 2509 
Q 2775 2619 2662 2680 
Q 2550 2741 2406 2741 
Q 2056 2741 1856 2470 
Q 1656 2200 1656 1722 
L 1656 0 
L 538 0 
L 538 4863 
L 1656 4863 
L 1656 2988 
Q 1909 3294 2193 3439 
Q 2478 3584 2822 3584 
Q 3428 3584 3742 3212 
Q 4056 2841 4056 2131 
z
" transform="scale(0.015625)"/>
     </defs>
     <use xlink:href="#DejaVuSans-Bold-2f"/>
     <use xlink:href="#DejaVuSans-Bold-44" transform="translate(63.71875 0)"/>
     <use xlink:href="#DejaVuSans-Bold-57" transform="translate(131.203125 0)"/>
     <use xlink:href="#DejaVuSans-Bold-48" transform="translate(179 0)"/>
     <use xlink:href="#DejaVuSans-Bold-10" transform="translate(246.828125 0)"/>
     <use xlink:href="#DejaVuSans-Bold-5a" transform="translate(288.328125 0)"/>
     <use xlink:href="#DejaVuSans-Bold-4c" transform="translate(380.71875 0)"/>
     <use xlink:href="#DejaVuSans-Bold-51" transform="translate(415 0)"/>
     <use xlink:href="#DejaVuSans-Bold-47" transform="translate(486.1875 0)"/>
     <use xlink:href="#DejaVuSans-Bold-52" transform="translate(557.765625 0)"/>
     <use xlink:href="#DejaVuSans-Bold-5a" transform="translate(626.46875 0)"/>
     <use xlink:href="#DejaVuSans-Bold-3" transform="translate(718.859375 0)"/>
     <use xlink:href="#DejaVuSans-Bold-46" transform="translate(753.671875 0)"/>
     <use xlink:href="#DejaVuSans-Bold-4f" transform="translate(812.953125 0)"/>
     <use xlink:href="#DejaVuSans-Bold-52" transform="translate(847.234375 0)"/>
     <use xlink:href="#DejaVuSans-Bold-56" transform="translate(915.9375 0)"/>
     <use xlink:href="#DejaVuSans-Bold-48" transform="translate(975.453125 0)"/>
     <use xlink:href="#DejaVuSans-Bold-55" transform="translate(1043.28125 0)"/>
     <use xlink:href="#DejaVuSans-Bold-56" transform="translate(1092.59375 0)"/>
     <use xlink:href="#DejaVuSans-Bold-3" transform="translate(1152.109375 0)"/>
     <use xlink:href="#DejaVuSans-Bold-44" transform="translate(1186.921875 0)"/>
     <use xlink:href="#DejaVuSans-Bold-51" transform="translate(1254.40625 0)"/>
     <use xlink:href="#DejaVuSans-Bold-47" transform="translate(1325.59375 0)"/>
     <use xlink:href="#DejaVuSans-Bold-3" transform="translate(1397.171875 0)"/>
     <use xlink:href="#DejaVuSans-Bold-4f" transform="translate(1431.984375 0)"/>
     <use xlink:href="#DejaVuSans-Bold-48" transform="translate(1466.265625 0)"/>
     <use xlink:href="#DejaVuSans-Bold-44" transform="translate(1534.09375 0)"/>
     <use xlink:href="#DejaVuSans-Bold-4e" transform="translate(1601.578125 0)"/>
     <use xlink:href="#DejaVuSans-Bold-4c" transform="translate(1668.078125 0)"/>
     <use xlink:href="#DejaVuSans-Bold-48" transform="translate(1702.359375 0)"/>
     <use xlink:href="#DejaVuSans-Bold-55" transform="translate(1770.1875 0)"/>
     <use xlink:href="#DejaVuSans-Bold-3" transform="translate(1819.5 0)"/>
     <use xlink:href="#DejaVuSans-Bold-13ab" transform="translate(1854.3125 0)"/>
     <use xlink:href="#DejaVuSans-Bold-51" transform="translate(1928.4375 0)"/>
     <use xlink:href="#DejaVuSans-Bold-4c" transform="translate(1999.625 0)"/>
     <use xlink:href="#DejaVuSans-Bold-56" transform="translate(2033.90625 0)"/>
     <use xlink:href="#DejaVuSans-Bold-4b" transform="translate(2093.421875 0)"/>
     <use xlink:href="#DejaVuSans-Bold-48" transform="translate(2164.609375 0)"/>
     <use xlink:href="#DejaVuSans-Bold-56" transform="translate(2232.4375 0)"/>
    </g>
   </g>
   <g id="legend_1">
    <g id="patch_33">
     <path d="M 538.260937 484.796875 
L 558.260937 484.796875 
L 558.260937 477.796875 
L 538.260937 477.796875 
z
" style="fill: #c9a227"/>
    </g>
    <g id="text_25">
     <!-- scored 75+ -->
     <g style="fill: #20242a" transform="translate(566.260937 484.796875) scale(0.1 -0.1)">
      <defs>
       <path id="DejaVuSans-1a" d="M 525 4666 
L 3525 4666 
L 3525 4397 
L 1831 0 
L 1172 0 
L 2766 4134 
L 525 4134 
L 525 4666 
z
" transform="scale(0.015625)"/>
       <path id="DejaVuSans-18" d="M 691 4666 
L 3169 4666 
L 3169 4134 
L 1269 4134 
L 1269 2991 
Q 1406 3038 1543 3061 
Q 1681 3084 1819 3084 
Q 2600 3084 3056 2656 
Q 3513 2228 3513 1497 
Q 3513 744 3044 326 
Q 2575 -91 1722 -91 
Q 1428 -91 1123 -41 
Q 819 9 494 109 
L 494 744 
Q 775 591 1075 516 
Q 1375 441 1709 441 
Q 2250 441 2565 725 
Q 2881 1009 2881 1497 
Q 2881 1984 2565 2268 
Q 2250 2553 1709 2553 
Q 1456 2553 1204 2497 
Q 953 2441 691 2322 
L 691 4666 
z
" transform="scale(0.015625)"/>
       <path id="DejaVuSans-e" d="M 2944 4013 
L 2944 2272 
L 4684 2272 
L 4684 1741 
L 2944 1741 
L 2944 0 
L 2419 0 
L 2419 1741 
L 678 1741 
L 678 2272 
L 2419 2272 
L 2419 4013 
L 2944 4013 
z
" transform="scale(0.015625)"/>
      </defs>
      <use xlink:href="#DejaVuSans-56"/>
      <use xlink:href="#DejaVuSans-46" transform="translate(52.09375 0)"/>
      <use xlink:href="#DejaVuSans-52" transform="translate(107.078125 0)"/>
      <use xlink:href="#DejaVuSans-55" transform="translate(168.265625 0)"/>
      <use xlink:href="#DejaVuSans-48" transform="translate(207.171875 0)"/>
      <use xlink:href="#DejaVuSans-47" transform="translate(268.703125 0)"/>
      <use xlink:href="#DejaVuSans-3" transform="translate(332.1875 0)"/>
      <use xlink:href="#DejaVuSans-1a" transform="translate(363.96875 0)"/>
      <use xlink:href="#DejaVuSans-18" transform="translate(427.59375 0)"/>
      <use xlink:href="#DejaVuSans-e" transform="translate(491.21875 0)"/>
     </g>
    </g>
    <g id="patch_34">
     <path d="M 538.260937 499.797656 
L 558.260937 499.797656 
L 558.260937 492.797656 
L 538.260937 492.797656 
z
" style="fill: #b94a48"/>
    </g>
    <g id="text_26">
     <!-- conceded 75+ -->
     <g style="fill: #20242a" transform="translate(566.260937 499.797656) scale(0.1 -0.1)">
      <use xlink:href="#DejaVuSans-46"/>
      <use xlink:href="#DejaVuSans-52" transform="translate(54.984375 0)"/>
      <use xlink:href="#DejaVuSans-51" transform="translate(116.171875 0)"/>
      <use xlink:href="#DejaVuSans-46" transform="translate(179.546875 0)"/>
      <use xlink:href="#DejaVuSans-48" transform="translate(234.53125 0)"/>
      <use xlink:href="#DejaVuSans-47" transform="translate(296.0625 0)"/>
      <use xlink:href="#DejaVuSans-48" transform="translate(359.546875 0)"/>
      <use xlink:href="#DejaVuSans-47" transform="translate(421.078125 0)"/>
      <use xlink:href="#DejaVuSans-3" transform="translate(484.5625 0)"/>
      <use xlink:href="#DejaVuSans-1a" transform="translate(516.34375 0)"/>
      <use xlink:href="#DejaVuSans-18" transform="translate(579.96875 0)"/>
      <use xlink:href="#DejaVuSans-e" transform="translate(643.59375 0)"/>
     </g>
    </g>
   </g>
  </g>
  <g id="text_27">
   <!-- Who owned minutes 75+? -->
   <g style="fill: #20242a" transform="translate(14.4 23.916562) scale(0.22 -0.22)">
    <defs>
     <path id="DejaVuSans-Bold-3a" d="M 191 4666 
L 1344 4666 
L 2150 1275 
L 2950 4666 
L 4109 4666 
L 4909 1275 
L 5716 4666 
L 6859 4666 
L 5759 0 
L 4372 0 
L 3525 3547 
L 2688 0 
L 1300 0 
L 191 4666 
z
" transform="scale(0.015625)"/>
     <path id="DejaVuSans-Bold-50" d="M 3781 2919 
Q 3994 3244 4286 3414 
Q 4578 3584 4928 3584 
Q 5531 3584 5847 3212 
Q 6163 2841 6163 2131 
L 6163 0 
L 5038 0 
L 5038 1825 
Q 5041 1866 5042 1909 
Q 5044 1953 5044 2034 
Q 5044 2406 4934 2573 
Q 4825 2741 4581 2741 
Q 4263 2741 4089 2478 
Q 3916 2216 3909 1719 
L 3909 0 
L 2784 0 
L 2784 1825 
Q 2784 2406 2684 2573 
Q 2584 2741 2328 2741 
Q 2006 2741 1831 2477 
Q 1656 2213 1656 1722 
L 1656 0 
L 531 0 
L 531 3500 
L 1656 3500 
L 1656 2988 
Q 1863 3284 2130 3434 
Q 2397 3584 2719 3584 
Q 3081 3584 3359 3409 
Q 3638 3234 3781 2919 
z
" transform="scale(0.015625)"/>
     <path id="DejaVuSans-Bold-58" d="M 500 1363 
L 500 3500 
L 1625 3500 
L 1625 3150 
Q 1625 2866 1622 2436 
Q 1619 2006 1619 1863 
Q 1619 1441 1641 1255 
Q 1663 1069 1716 984 
Q 1784 875 1895 815 
Q 2006 756 2150 756 
Q 2500 756 2700 1025 
Q 2900 1294 2900 1772 
L 2900 3500 
L 4019 3500 
L 4019 0 
L 2900 0 
L 2900 506 
Q 2647 200 2364 54 
Q 2081 -91 1741 -91 
Q 1134 -91 817 281 
Q 500 653 500 1363 
z
" transform="scale(0.015625)"/>
     <path id="DejaVuSans-Bold-1a" d="M 428 4666 
L 3944 4666 
L 3944 3988 
L 2125 0 
L 953 0 
L 2675 3781 
L 428 3781 
L 428 4666 
z
" transform="scale(0.015625)"/>
     <path id="DejaVuSans-Bold-18" d="M 678 4666 
L 3669 4666 
L 3669 3781 
L 1638 3781 
L 1638 3059 
Q 1775 3097 1914 3117 
Q 2053 3138 2203 3138 
Q 3056 3138 3531 2711 
Q 4006 2284 4006 1522 
Q 4006 766 3489 337 
Q 2972 -91 2053 -91 
Q 1656 -91 1267 -14 
Q 878 63 494 219 
L 494 1166 
Q 875 947 1217 837 
Q 1559 728 1863 728 
Q 2300 728 2551 942 
Q 2803 1156 2803 1522 
Q 2803 1891 2551 2103 
Q 2300 2316 1863 2316 
Q 1603 2316 1309 2248 
Q 1016 2181 678 2041 
L 678 4666 
z
" transform="scale(0.015625)"/>
     <path id="DejaVuSans-Bold-e" d="M 3053 4013 
L 3053 2375 
L 4684 2375 
L 4684 1638 
L 3053 1638 
L 3053 0 
L 2309 0 
L 2309 1638 
L 678 1638 
L 678 2375 
L 2309 2375 
L 2309 4013 
L 3053 4013 
z
" transform="scale(0.015625)"/>
     <path id="DejaVuSans-Bold-22" d="M 2216 1575 
L 1088 1575 
L 1088 1728 
Q 1088 1984 1191 2182 
Q 1294 2381 1625 2688 
L 1825 2869 
Q 2003 3031 2086 3175 
Q 2169 3319 2169 3463 
Q 2169 3681 2019 3804 
Q 1869 3928 1600 3928 
Q 1347 3928 1053 3823 
Q 759 3719 441 3513 
L 441 4494 
Q 819 4625 1131 4687 
Q 1444 4750 1734 4750 
Q 2497 4750 2897 4439 
Q 3297 4128 3297 3531 
Q 3297 3225 3175 2983 
Q 3053 2741 2759 2463 
L 2559 2284 
Q 2347 2091 2281 1973 
Q 2216 1856 2216 1716 
L 2216 1575 
z
M 1088 1113 
L 2216 1113 
L 2216 0 
L 1088 0 
L 1088 1113 
z
" transform="scale(0.015625)"/>
    </defs>
    <use xlink:href="#DejaVuSans-Bold-3a"/>
    <use xlink:href="#DejaVuSans-Bold-4b" transform="translate(110.296875 0)"/>
    <use xlink:href="#DejaVuSans-Bold-52" transform="translate(181.484375 0)"/>
    <use xlink:href="#DejaVuSans-Bold-3" transform="translate(250.1875 0)"/>
    <use xlink:href="#DejaVuSans-Bold-52" transform="translate(285 0)"/>
    <use xlink:href="#DejaVuSans-Bold-5a" transform="translate(353.703125 0)"/>
    <use xlink:href="#DejaVuSans-Bold-51" transform="translate(446.09375 0)"/>
    <use xlink:href="#DejaVuSans-Bold-48" transform="translate(517.28125 0)"/>
    <use xlink:href="#DejaVuSans-Bold-47" transform="translate(585.109375 0)"/>
    <use xlink:href="#DejaVuSans-Bold-3" transform="translate(656.6875 0)"/>
    <use xlink:href="#DejaVuSans-Bold-50" transform="translate(691.5 0)"/>
    <use xlink:href="#DejaVuSans-Bold-4c" transform="translate(795.703125 0)"/>
    <use xlink:href="#DejaVuSans-Bold-51" transform="translate(829.984375 0)"/>
    <use xlink:href="#DejaVuSans-Bold-58" transform="translate(901.171875 0)"/>
    <use xlink:href="#DejaVuSans-Bold-57" transform="translate(972.359375 0)"/>
    <use xlink:href="#DejaVuSans-Bold-48" transform="translate(1020.15625 0)"/>
    <use xlink:href="#DejaVuSans-Bold-56" transform="translate(1087.984375 0)"/>
    <use xlink:href="#DejaVuSans-Bold-3" transform="translate(1147.5 0)"/>
    <use xlink:href="#DejaVuSans-Bold-1a" transform="translate(1182.3125 0)"/>
    <use xlink:href="#DejaVuSans-Bold-18" transform="translate(1251.890625 0)"/>
    <use xlink:href="#DejaVuSans-Bold-e" transform="translate(1321.46875 0)"/>
    <use xlink:href="#DejaVuSans-Bold-22" transform="translate(1405.265625 0)"/>
   </g>
  </g>
  <g id="text_28">
   <!-- A direct team ranking of the late-goal spike separates teams that closed games from teams that merely appeared in late drama. -->
   <g style="fill: #6f7782" transform="translate(14.4 33.806438) scale(0.1 -0.1)">
    <defs>
     <path id="DejaVuSans-50" d="M 3328 2828 
Q 3544 3216 3844 3400 
Q 4144 3584 4550 3584 
Q 5097 3584 5394 3201 
Q 5691 2819 5691 2113 
L 5691 0 
L 5113 0 
L 5113 2094 
Q 5113 2597 4934 2840 
Q 4756 3084 4391 3084 
Q 3944 3084 3684 2787 
Q 3425 2491 3425 1978 
L 3425 0 
L 2847 0 
L 2847 2094 
Q 2847 2600 2669 2842 
Q 2491 3084 2119 3084 
Q 1678 3084 1418 2786 
Q 1159 2488 1159 1978 
L 1159 0 
L 581 0 
L 581 3500 
L 1159 3500 
L 1159 2956 
Q 1356 3278 1631 3431 
Q 1906 3584 2284 3584 
Q 2666 3584 2933 3390 
Q 3200 3197 3328 2828 
z
" transform="scale(0.015625)"/>
     <path id="DejaVuSans-4e" d="M 581 4863 
L 1159 4863 
L 1159 1991 
L 2875 3500 
L 3609 3500 
L 1753 1863 
L 3688 0 
L 2938 0 
L 1159 1709 
L 1159 0 
L 581 0 
L 581 4863 
z
" transform="scale(0.015625)"/>
     <path id="DejaVuSans-10" d="M 313 2009 
L 1997 2009 
L 1997 1497 
L 313 1497 
L 313 2009 
z
" transform="scale(0.015625)"/>
     <path id="DejaVuSans-53" d="M 1159 525 
L 1159 -1331 
L 581 -1331 
L 581 3500 
L 1159 3500 
L 1159 2969 
Q 1341 3281 1617 3432 
Q 1894 3584 2278 3584 
Q 2916 3584 3314 3078 
Q 3713 2572 3713 1747 
Q 3713 922 3314 415 
Q 2916 -91 2278 -91 
Q 1894 -91 1617 61 
Q 1341 213 1159 525 
z
M 3116 1747 
Q 3116 2381 2855 2742 
Q 2594 3103 2138 3103 
Q 1681 3103 1420 2742 
Q 1159 2381 1159 1747 
Q 1159 1113 1420 752 
Q 1681 391 2138 391 
Q 2594 391 2855 752 
Q 3116 1113 3116 1747 
z
" transform="scale(0.015625)"/>
     <path id="DejaVuSans-5c" d="M 2059 -325 
Q 1816 -950 1584 -1140 
Q 1353 -1331 966 -1331 
L 506 -1331 
L 506 -850 
L 844 -850 
Q 1081 -850 1212 -737 
Q 1344 -625 1503 -206 
L 1606 56 
L 191 3500 
L 800 3500 
L 1894 763 
L 2988 3500 
L 3597 3500 
L 2059 -325 
z
" transform="scale(0.015625)"/>
     <path id="DejaVuSans-11" d="M 684 794 
L 1344 794 
L 1344 0 
L 684 0 
L 684 794 
z
" transform="scale(0.015625)"/>
    </defs>
    <use xlink:href="#DejaVuSans-24"/>
    <use xlink:href="#DejaVuSans-3" transform="translate(68.40625 0)"/>
    <use xlink:href="#DejaVuSans-47" transform="translate(100.1875 0)"/>
    <use xlink:href="#DejaVuSans-4c" transform="translate(163.671875 0)"/>
    <use xlink:href="#DejaVuSans-55" transform="translate(191.453125 0)"/>
    <use xlink:href="#DejaVuSans-48" transform="translate(230.359375 0)"/>
    <use xlink:href="#DejaVuSans-46" transform="translate(291.890625 0)"/>
    <use xlink:href="#DejaVuSans-57" transform="translate(346.875 0)"/>
    <use xlink:href="#DejaVuSans-3" transform="translate(386.078125 0)"/>
    <use xlink:href="#DejaVuSans-57" transform="translate(417.859375 0)"/>
    <use xlink:href="#DejaVuSans-48" transform="translate(457.0625 0)"/>
    <use xlink:href="#DejaVuSans-44" transform="translate(518.59375 0)"/>
    <use xlink:href="#DejaVuSans-50" transform="translate(579.875 0)"/>
    <use xlink:href="#DejaVuSans-3" transform="translate(677.28125 0)"/>
    <use xlink:href="#DejaVuSans-55" transform="translate(709.0625 0)"/>
    <use xlink:href="#DejaVuSans-44" transform="translate(750.171875 0)"/>
    <use xlink:href="#DejaVuSans-51" transform="translate(811.453125 0)"/>
    <use xlink:href="#DejaVuSans-4e" transform="translate(874.828125 0)"/>
    <use xlink:href="#DejaVuSans-4c" transform="translate(932.734375 0)"/>
    <use xlink:href="#DejaVuSans-51" transform="translate(960.515625 0)"/>
    <use xlink:href="#DejaVuSans-4a" transform="translate(1023.890625 0)"/>
    <use xlink:href="#DejaVuSans-3" transform="translate(1087.375 0)"/>
    <use xlink:href="#DejaVuSans-52" transform="translate(1119.15625 0)"/>
    <use xlink:href="#DejaVuSans-49" transform="translate(1180.34375 0)"/>
    <use xlink:href="#DejaVuSans-3" transform="translate(1215.546875 0)"/>
    <use xlink:href="#DejaVuSans-57" transform="translate(1247.328125 0)"/>
    <use xlink:href="#DejaVuSans-4b" transform="translate(1286.53125 0)"/>
    <use xlink:href="#DejaVuSans-48" transform="translate(1349.90625 0)"/>
    <use xlink:href="#DejaVuSans-3" transform="translate(1411.4375 0)"/>
    <use xlink:href="#DejaVuSans-4f" transform="translate(1443.21875 0)"/>
    <use xlink:href="#DejaVuSans-44" transform="translate(1471 0)"/>
    <use xlink:href="#DejaVuSans-57" transform="translate(1532.28125 0)"/>
    <use xlink:href="#DejaVuSans-48" transform="translate(1571.484375 0)"/>
    <use xlink:href="#DejaVuSans-10" transform="translate(1633.015625 0)"/>
    <use xlink:href="#DejaVuSans-4a" transform="translate(1669.09375 0)"/>
    <use xlink:href="#DejaVuSans-52" transform="translate(1732.578125 0)"/>
    <use xlink:href="#DejaVuSans-44" transform="translate(1793.765625 0)"/>
    <use xlink:href="#DejaVuSans-4f" transform="translate(1855.046875 0)"/>
    <use xlink:href="#DejaVuSans-3" transform="translate(1882.828125 0)"/>
    <use xlink:href="#DejaVuSans-56" transform="translate(1914.609375 0)"/>
    <use xlink:href="#DejaVuSans-53" transform="translate(1966.703125 0)"/>
    <use xlink:href="#DejaVuSans-4c" transform="translate(2030.1875 0)"/>
    <use xlink:href="#DejaVuSans-4e" transform="translate(2057.96875 0)"/>
    <use xlink:href="#DejaVuSans-48" transform="translate(2112.3125 0)"/>
    <use xlink:href="#DejaVuSans-3" transform="translate(2173.84375 0)"/>
    <use xlink:href="#DejaVuSans-56" transform="translate(2205.625 0)"/>
    <use xlink:href="#DejaVuSans-48" transform="translate(2257.71875 0)"/>
    <use xlink:href="#DejaVuSans-53" transform="translate(2319.25 0)"/>
    <use xlink:href="#DejaVuSans-44" transform="translate(2382.734375 0)"/>
    <use xlink:href="#DejaVuSans-55" transform="translate(2444.015625 0)"/>
    <use xlink:href="#DejaVuSans-44" transform="translate(2485.125 0)"/>
    <use xlink:href="#DejaVuSans-57" transform="translate(2546.40625 0)"/>
    <use xlink:href="#DejaVuSans-48" transform="translate(2585.609375 0)"/>
    <use xlink:href="#DejaVuSans-56" transform="translate(2647.140625 0)"/>
    <use xlink:href="#DejaVuSans-3" transform="translate(2699.234375 0)"/>
    <use xlink:href="#DejaVuSans-57" transform="translate(2731.015625 0)"/>
    <use xlink:href="#DejaVuSans-48" transform="translate(2770.21875 0)"/>
    <use xlink:href="#DejaVuSans-44" transform="translate(2831.75 0)"/>
    <use xlink:href="#DejaVuSans-50" transform="translate(2893.03125 0)"/>
    <use xlink:href="#DejaVuSans-56" transform="translate(2990.4375 0)"/>
    <use xlink:href="#DejaVuSans-3" transform="translate(3042.53125 0)"/>
    <use xlink:href="#DejaVuSans-57" transform="translate(3074.3125 0)"/>
    <use xlink:href="#DejaVuSans-4b" transform="translate(3113.515625 0)"/>
    <use xlink:href="#DejaVuSans-44" transform="translate(3176.890625 0)"/>
    <use xlink:href="#DejaVuSans-57" transform="translate(3238.171875 0)"/>
    <use xlink:href="#DejaVuSans-3" transform="translate(3277.375 0)"/>
    <use xlink:href="#DejaVuSans-46" transform="translate(3309.15625 0)"/>
    <use xlink:href="#DejaVuSans-4f" transform="translate(3364.140625 0)"/>
    <use xlink:href="#DejaVuSans-52" transform="translate(3391.921875 0)"/>
    <use xlink:href="#DejaVuSans-56" transform="translate(3453.109375 0)"/>
    <use xlink:href="#DejaVuSans-48" transform="translate(3505.203125 0)"/>
    <use xlink:href="#DejaVuSans-47" transform="translate(3566.734375 0)"/>
    <use xlink:href="#DejaVuSans-3" transform="translate(3630.21875 0)"/>
    <use xlink:href="#DejaVuSans-4a" transform="translate(3662 0)"/>
    <use xlink:href="#DejaVuSans-44" transform="translate(3725.484375 0)"/>
    <use xlink:href="#DejaVuSans-50" transform="translate(3786.765625 0)"/>
    <use xlink:href="#DejaVuSans-48" transform="translate(3884.171875 0)"/>
    <use xlink:href="#DejaVuSans-56" transform="translate(3945.703125 0)"/>
    <use xlink:href="#DejaVuSans-3" transform="translate(3997.796875 0)"/>
    <use xlink:href="#DejaVuSans-49" transform="translate(4029.578125 0)"/>
    <use xlink:href="#DejaVuSans-55" transform="translate(4064.78125 0)"/>
    <use xlink:href="#DejaVuSans-52" transform="translate(4103.6875 0)"/>
    <use xlink:href="#DejaVuSans-50" transform="translate(4164.875 0)"/>
    <use xlink:href="#DejaVuSans-3" transform="translate(4262.28125 0)"/>
    <use xlink:href="#DejaVuSans-57" transform="translate(4294.0625 0)"/>
    <use xlink:href="#DejaVuSans-48" transform="translate(4333.265625 0)"/>
    <use xlink:href="#DejaVuSans-44" transform="translate(4394.796875 0)"/>
    <use xlink:href="#DejaVuSans-50" transform="translate(4456.078125 0)"/>
    <use xlink:href="#DejaVuSans-56" transform="translate(4553.484375 0)"/>
    <use xlink:href="#DejaVuSans-3" transform="translate(4605.578125 0)"/>
    <use xlink:href="#DejaVuSans-57" transform="translate(4637.359375 0)"/>
    <use xlink:href="#DejaVuSans-4b" transform="translate(4676.5625 0)"/>
    <use xlink:href="#DejaVuSans-44" transform="translate(4739.9375 0)"/>
    <use xlink:href="#DejaVuSans-57" transform="translate(4801.21875 0)"/>
    <use xlink:href="#DejaVuSans-3" transform="translate(4840.421875 0)"/>
    <use xlink:href="#DejaVuSans-50" transform="translate(4872.203125 0)"/>
    <use xlink:href="#DejaVuSans-48" transform="translate(4969.609375 0)"/>
    <use xlink:href="#DejaVuSans-55" transform="translate(5031.140625 0)"/>
    <use xlink:href="#DejaVuSans-48" transform="translate(5070.046875 0)"/>
    <use xlink:href="#DejaVuSans-4f" transform="translate(5131.578125 0)"/>
    <use xlink:href="#DejaVuSans-5c" transform="translate(5159.359375 0)"/>
    <use xlink:href="#DejaVuSans-3" transform="translate(5218.546875 0)"/>
    <use xlink:href="#DejaVuSans-44" transform="translate(5250.328125 0)"/>
    <use xlink:href="#DejaVuSans-53" transform="translate(5311.609375 0)"/>
    <use xlink:href="#DejaVuSans-53" transform="translate(5375.09375 0)"/>
    <use xlink:href="#DejaVuSans-48" transform="translate(5438.578125 0)"/>
    <use xlink:href="#DejaVuSans-44" transform="translate(5500.109375 0)"/>
    <use xlink:href="#DejaVuSans-55" transform="translate(5561.390625 0)"/>
    <use xlink:href="#DejaVuSans-48" transform="translate(5600.296875 0)"/>
    <use xlink:href="#DejaVuSans-47" transform="translate(5661.828125 0)"/>
    <use xlink:href="#DejaVuSans-3" transform="translate(5725.3125 0)"/>
    <use xlink:href="#DejaVuSans-4c" transform="translate(5757.09375 0)"/>
    <use xlink:href="#DejaVuSans-51" transform="translate(5784.875 0)"/>
    <use xlink:href="#DejaVuSans-3" transform="translate(5848.25 0)"/>
    <use xlink:href="#DejaVuSans-4f" transform="translate(5880.03125 0)"/>
    <use xlink:href="#DejaVuSans-44" transform="translate(5907.8125 0)"/>
    <use xlink:href="#DejaVuSans-57" transform="translate(5969.09375 0)"/>
    <use xlink:href="#DejaVuSans-48" transform="translate(6008.296875 0)"/>
    <use xlink:href="#DejaVuSans-3" transform="translate(6069.828125 0)"/>
    <use xlink:href="#DejaVuSans-47" transform="translate(6101.609375 0)"/>
    <use xlink:href="#DejaVuSans-55" transform="translate(6165.09375 0)"/>
    <use xlink:href="#DejaVuSans-44" transform="translate(6206.203125 0)"/>
    <use xlink:href="#DejaVuSans-50" transform="translate(6267.484375 0)"/>
    <use xlink:href="#DejaVuSans-44" transform="translate(6364.890625 0)"/>
    <use xlink:href="#DejaVuSans-11" transform="translate(6426.171875 0)"/>
   </g>
  </g>
  <g id="text_29">
   <!-- FIFA World Cup 2026 dataset · rendered by boxwheel/wc2026-viz-v2-tournament-flow -->
   <g style="fill: #6f7782" transform="translate(7.2 565.966359) scale(0.07 -0.07)">
    <defs>
     <path id="DejaVuSans-58" d="M 544 1381 
L 544 3500 
L 1119 3500 
L 1119 1403 
Q 1119 906 1312 657 
Q 1506 409 1894 409 
Q 2359 409 2629 706 
Q 2900 1003 2900 1516 
L 2900 3500 
L 3475 3500 
L 3475 0 
L 2900 0 
L 2900 538 
Q 2691 219 2414 64 
Q 2138 -91 1772 -91 
Q 1169 -91 856 284 
Q 544 659 544 1381 
z
M 1991 3584 
L 1991 3584 
z
" transform="scale(0.015625)"/>
     <path id="DejaVuSans-19" d="M 2113 2584 
Q 1688 2584 1439 2293 
Q 1191 2003 1191 1497 
Q 1191 994 1439 701 
Q 1688 409 2113 409 
Q 2538 409 2786 701 
Q 3034 994 3034 1497 
Q 3034 2003 2786 2293 
Q 2538 2584 2113 2584 
z
M 3366 4563 
L 3366 3988 
Q 3128 4100 2886 4159 
Q 2644 4219 2406 4219 
Q 1781 4219 1451 3797 
Q 1122 3375 1075 2522 
Q 1259 2794 1537 2939 
Q 1816 3084 2150 3084 
Q 2853 3084 3261 2657 
Q 3669 2231 3669 1497 
Q 3669 778 3244 343 
Q 2819 -91 2113 -91 
Q 1303 -91 875 529 
Q 447 1150 447 2328 
Q 447 3434 972 4092 
Q 1497 4750 2381 4750 
Q 2619 4750 2861 4703 
Q 3103 4656 3366 4563 
z
" transform="scale(0.015625)"/>
     <path id="DejaVuSans-79" d="M 684 2619 
L 1344 2619 
L 1344 1825 
L 684 1825 
L 684 2619 
z
" transform="scale(0.015625)"/>
     <path id="DejaVuSans-45" d="M 3116 1747 
Q 3116 2381 2855 2742 
Q 2594 3103 2138 3103 
Q 1681 3103 1420 2742 
Q 1159 2381 1159 1747 
Q 1159 1113 1420 752 
Q 1681 391 2138 391 
Q 2594 391 2855 752 
Q 3116 1113 3116 1747 
z
M 1159 2969 
Q 1341 3281 1617 3432 
Q 1894 3584 2278 3584 
Q 2916 3584 3314 3078 
Q 3713 2572 3713 1747 
Q 3713 922 3314 415 
Q 2916 -91 2278 -91 
Q 1894 -91 1617 61 
Q 1341 213 1159 525 
L 1159 0 
L 581 0 
L 581 4863 
L 1159 4863 
L 1159 2969 
z
" transform="scale(0.015625)"/>
     <path id="DejaVuSans-5b" d="M 3513 3500 
L 2247 1797 
L 3578 0 
L 2900 0 
L 1881 1375 
L 863 0 
L 184 0 
L 1544 1831 
L 300 3500 
L 978 3500 
L 1906 2253 
L 2834 3500 
L 3513 3500 
z
" transform="scale(0.015625)"/>
     <path id="DejaVuSans-5a" d="M 269 3500 
L 844 3500 
L 1563 769 
L 2278 3500 
L 2956 3500 
L 3675 769 
L 4391 3500 
L 4966 3500 
L 4050 0 
L 3372 0 
L 2619 2869 
L 1863 0 
L 1184 0 
L 269 3500 
z
" transform="scale(0.015625)"/>
     <path id="DejaVuSans-12" d="M 1625 4666 
L 2156 4666 
L 531 -594 
L 0 -594 
L 1625 4666 
z
" transform="scale(0.015625)"/>
     <path id="DejaVuSans-59" d="M 191 3500 
L 800 3500 
L 1894 563 
L 2988 3500 
L 3597 3500 
L 2284 0 
L 1503 0 
L 191 3500 
z
" transform="scale(0.015625)"/>
     <path id="DejaVuSans-5d" d="M 353 3500 
L 3084 3500 
L 3084 2975 
L 922 459 
L 3084 459 
L 3084 0 
L 275 0 
L 275 525 
L 2438 3041 
L 353 3041 
L 353 3500 
z
" transform="scale(0.015625)"/>
     <path id="DejaVuSans-13b0" d="M 1831 4863 
L 3431 4863 
L 3431 0 
L 2853 0 
L 2853 4384 
L 1825 4384 
Q 1516 4384 1395 4259 
Q 1275 4134 1275 3809 
L 1275 3500 
L 2222 3500 
L 2222 3053 
L 1275 3053 
L 1275 0 
L 697 0 
L 697 3053 
L 147 3053 
L 147 3500 
L 697 3500 
L 697 3744 
Q 697 4328 969 4595 
Q 1241 4863 1831 4863 
z
" transform="scale(0.015625)"/>
    </defs>
    <use xlink:href="#DejaVuSans-29"/>
    <use xlink:href="#DejaVuSans-2c" transform="translate(57.515625 0)"/>
    <use xlink:href="#DejaVuSans-29" transform="translate(87.015625 0)"/>
    <use xlink:href="#DejaVuSans-24" transform="translate(135.359375 0)"/>
    <use xlink:href="#DejaVuSans-3" transform="translate(203.765625 0)"/>
    <use xlink:href="#DejaVuSans-3a" transform="translate(235.546875 0)"/>
    <use xlink:href="#DejaVuSans-52" transform="translate(328.5625 0)"/>
    <use xlink:href="#DejaVuSans-55" transform="translate(389.75 0)"/>
    <use xlink:href="#DejaVuSans-4f" transform="translate(430.859375 0)"/>
    <use xlink:href="#DejaVuSans-47" transform="translate(458.640625 0)"/>
    <use xlink:href="#DejaVuSans-3" transform="translate(522.125 0)"/>
    <use xlink:href="#DejaVuSans-26" transform="translate(553.90625 0)"/>
    <use xlink:href="#DejaVuSans-58" transform="translate(623.734375 0)"/>
    <use xlink:href="#DejaVuSans-53" transform="translate(687.109375 0)"/>
    <use xlink:href="#DejaVuSans-3" transform="translate(750.59375 0)"/>
    <use xlink:href="#DejaVuSans-15" transform="translate(782.375 0)"/>
    <use xlink:href="#DejaVuSans-13" transform="translate(846 0)"/>
    <use xlink:href="#DejaVuSans-15" transform="translate(909.625 0)"/>
    <use xlink:href="#DejaVuSans-19" transform="translate(973.25 0)"/>
    <use xlink:href="#DejaVuSans-3" transform="translate(1036.875 0)"/>
    <use xlink:href="#DejaVuSans-47" transform="translate(1068.65625 0)"/>
    <use xlink:href="#DejaVuSans-44" transform="translate(1132.140625 0)"/>
    <use xlink:href="#DejaVuSans-57" transform="translate(1193.421875 0)"/>
    <use xlink:href="#DejaVuSans-44" transform="translate(1232.625 0)"/>
    <use xlink:href="#DejaVuSans-56" transform="translate(1293.90625 0)"/>
    <use xlink:href="#DejaVuSans-48" transform="translate(1346 0)"/>
    <use xlink:href="#DejaVuSans-57" transform="translate(1407.53125 0)"/>
    <use xlink:href="#DejaVuSans-3" transform="translate(1446.734375 0)"/>
    <use xlink:href="#DejaVuSans-79" transform="translate(1478.515625 0)"/>
    <use xlink:href="#DejaVuSans-3" transform="translate(1510.296875 0)"/>
    <use xlink:href="#DejaVuSans-55" transform="translate(1542.078125 0)"/>
    <use xlink:href="#DejaVuSans-48" transform="translate(1580.984375 0)"/>
    <use xlink:href="#DejaVuSans-51" transform="translate(1642.515625 0)"/>
    <use xlink:href="#DejaVuSans-47" transform="translate(1705.890625 0)"/>
    <use xlink:href="#DejaVuSans-48" transform="translate(1769.375 0)"/>
    <use xlink:href="#DejaVuSans-55" transform="translate(1830.90625 0)"/>
    <use xlink:href="#DejaVuSans-48" transform="translate(1869.8125 0)"/>
    <use xlink:href="#DejaVuSans-47" transform="translate(1931.34375 0)"/>
    <use xlink:href="#DejaVuSans-3" transform="translate(1994.828125 0)"/>
    <use xlink:href="#DejaVuSans-45" transform="translate(2026.609375 0)"/>
    <use xlink:href="#DejaVuSans-5c" transform="translate(2090.09375 0)"/>
    <use xlink:href="#DejaVuSans-3" transform="translate(2149.28125 0)"/>
    <use xlink:href="#DejaVuSans-45" transform="translate(2181.0625 0)"/>
    <use xlink:href="#DejaVuSans-52" transform="translate(2244.546875 0)"/>
    <use xlink:href="#DejaVuSans-5b" transform="translate(2302.65625 0)"/>
    <use xlink:href="#DejaVuSans-5a" transform="translate(2361.84375 0)"/>
    <use xlink:href="#DejaVuSans-4b" transform="translate(2443.625 0)"/>
    <use xlink:href="#DejaVuSans-48" transform="translate(2507 0)"/>
    <use xlink:href="#DejaVuSans-48" transform="translate(2568.53125 0)"/>
    <use xlink:href="#DejaVuSans-4f" transform="translate(2630.0625 0)"/>
    <use xlink:href="#DejaVuSans-12" transform="translate(2657.84375 0)"/>
    <use xlink:href="#DejaVuSans-5a" transform="translate(2691.53125 0)"/>
    <use xlink:href="#DejaVuSans-46" transform="translate(2773.3125 0)"/>
    <use xlink:href="#DejaVuSans-15" transform="translate(2828.296875 0)"/>
    <use xlink:href="#DejaVuSans-13" transform="translate(2891.921875 0)"/>
    <use xlink:href="#DejaVuSans-15" transform="translate(2955.546875 0)"/>
    <use xlink:href="#DejaVuSans-19" transform="translate(3019.171875 0)"/>
    <use xlink:href="#DejaVuSans-10" transform="translate(3082.796875 0)"/>
    <use xlink:href="#DejaVuSans-59" transform="translate(3116.1875 0)"/>
    <use xlink:href="#DejaVuSans-4c" transform="translate(3175.375 0)"/>
    <use xlink:href="#DejaVuSans-5d" transform="translate(3203.15625 0)"/>
    <use xlink:href="#DejaVuSans-10" transform="translate(3255.640625 0)"/>
    <use xlink:href="#DejaVuSans-59" transform="translate(3289.03125 0)"/>
    <use xlink:href="#DejaVuSans-15" transform="translate(3348.21875 0)"/>
    <use xlink:href="#DejaVuSans-10" transform="translate(3411.84375 0)"/>
    <use xlink:href="#DejaVuSans-57" transform="translate(3447.921875 0)"/>
    <use xlink:href="#DejaVuSans-52" transform="translate(3487.125 0)"/>
    <use xlink:href="#DejaVuSans-58" transform="translate(3548.3125 0)"/>
    <use xlink:href="#DejaVuSans-55" transform="translate(3611.6875 0)"/>
    <use xlink:href="#DejaVuSans-51" transform="translate(3651.046875 0)"/>
    <use xlink:href="#DejaVuSans-44" transform="translate(3714.421875 0)"/>
    <use xlink:href="#DejaVuSans-50" transform="translate(3775.703125 0)"/>
    <use xlink:href="#DejaVuSans-48" transform="translate(3873.109375 0)"/>
    <use xlink:href="#DejaVuSans-51" transform="translate(3934.640625 0)"/>
    <use xlink:href="#DejaVuSans-57" transform="translate(3998.015625 0)"/>
    <use xlink:href="#DejaVuSans-10" transform="translate(4037.21875 0)"/>
    <use xlink:href="#DejaVuSans-13b0" transform="translate(4073.296875 0)"/>
    <use xlink:href="#DejaVuSans-52" transform="translate(4136.28125 0)"/>
    <use xlink:href="#DejaVuSans-5a" transform="translate(4197.46875 0)"/>
   </g>
  </g>
 </g>
 <defs>
  <clipPath id="p2f6d0afcaf">
   <rect x="90" y="67.68" width="558" height="443.52"/>
  </clipPath>
 </defs>
</svg>
